<?xml version="1.0" encoding="UTF-8"?>
<svg xmlns="http://www.w3.org/2000/svg" width="53" height="53" viewBox="0 0 53 53" fill="none">
  <g clip-path="url(#clip0_8_4724)">
    <mask id="path-1-inside-1_8_4724" fill="white">
      <path d="M32.3039 18.4781C35.0089 15.3586 34.7805 10.6653 31.7921 7.81424C28.8037 4.96314 24.1064 4.96314 21.118 7.81424C18.1296 10.6653 17.9012 15.3586 20.6062 18.4781C18.0748 19.7741 16.3933 22.2919 16.1739 25.1245C11.2756 19.5982 11.6046 11.193 16.9325 6.07396C22.2512 0.954928 30.668 0.954928 35.9868 6.0647C41.3147 11.1837 41.6437 19.5889 36.7453 25.1153C36.5168 22.2827 34.8353 19.7648 32.3039 18.4689M20.4417 13.4146C20.4417 10.0914 23.1377 7.39769 26.4642 7.39769C29.7907 7.39769 32.4775 10.0914 32.4775 13.4146C32.4775 16.7378 29.7816 19.4316 26.4642 19.4316C23.1377 19.4316 20.4509 16.7378 20.4417 13.4146ZM30.9696 29.0031C30.6772 29.105 30.467 29.3549 30.4121 29.6511C30.3573 29.9566 30.4578 30.2621 30.6954 30.4657C30.9239 30.6694 31.2529 30.7249 31.5362 30.6231C38.6736 28.1515 42.9871 20.8756 41.7351 13.4239C40.4739 5.98139 34.022 0.529114 26.4642 0.529114C18.9064 0.529114 12.4545 5.98139 11.2025 13.4424C9.95044 20.8942 14.2548 28.17 21.4013 30.6416C21.8491 30.799 22.3426 30.5583 22.498 30.114C22.6533 29.6604 22.4157 29.179 21.9679 29.0217C20.4783 28.5033 19.0983 27.735 17.8738 26.7445V25.8095C17.8738 23.1251 19.5187 20.7183 22.0228 19.7556C24.6821 21.644 28.2463 21.644 30.9148 19.7556C33.4188 20.7183 35.0729 23.1251 35.0638 25.8095V26.7445C33.8392 27.735 32.4592 28.5033 30.9787 29.0217"></path>
    </mask>
    <path d="M32.3039 18.4781C35.0089 15.3586 34.7805 10.6653 31.7921 7.81424C28.8037 4.96314 24.1064 4.96314 21.118 7.81424C18.1296 10.6653 17.9012 15.3586 20.6062 18.4781C18.0748 19.7741 16.3933 22.2919 16.1739 25.1245C11.2756 19.5982 11.6046 11.193 16.9325 6.07396C22.2512 0.954928 30.668 0.954928 35.9868 6.0647C41.3147 11.1837 41.6437 19.5889 36.7453 25.1153C36.5168 22.2827 34.8353 19.7648 32.3039 18.4689M20.4417 13.4146C20.4417 10.0914 23.1377 7.39769 26.4642 7.39769C29.7907 7.39769 32.4775 10.0914 32.4775 13.4146C32.4775 16.7378 29.7816 19.4316 26.4642 19.4316C23.1377 19.4316 20.4509 16.7378 20.4417 13.4146ZM30.9696 29.0031C30.6772 29.105 30.467 29.3549 30.4121 29.6511C30.3573 29.9566 30.4578 30.2621 30.6954 30.4657C30.9239 30.6694 31.2529 30.7249 31.5362 30.6231C38.6736 28.1515 42.9871 20.8756 41.7351 13.4239C40.4739 5.98139 34.022 0.529114 26.4642 0.529114C18.9064 0.529114 12.4545 5.98139 11.2025 13.4424C9.95044 20.8942 14.2548 28.17 21.4013 30.6416C21.8491 30.799 22.3426 30.5583 22.498 30.114C22.6533 29.6604 22.4157 29.179 21.9679 29.0217C20.4783 28.5033 19.0983 27.735 17.8738 26.7445V25.8095C17.8738 23.1251 19.5187 20.7183 22.0228 19.7556C24.6821 21.644 28.2463 21.644 30.9148 19.7556C33.4188 20.7183 35.0729 23.1251 35.0638 25.8095V26.7445C33.8392 27.735 32.4592 28.5033 30.9787 29.0217" fill="#00C4D1"></path>
    <path d="M20.6062 18.4781L21.1287 19.4986L22.4306 18.8321L21.4724 17.7271L20.6062 18.4781ZM16.1739 25.1245L15.316 25.885L17.1083 27.907L17.3169 25.213L16.1739 25.1245ZM16.9325 6.07396L17.7267 6.90063L17.7274 6.89995L16.9325 6.07396ZM35.9868 6.0647L36.7811 5.23803L36.781 5.23799L35.9868 6.0647ZM36.7453 25.1153L35.6026 25.2074L35.8189 27.8888L37.6032 25.8757L36.7453 25.1153ZM20.4417 13.4146H19.2953L19.2953 13.4178L20.4417 13.4146ZM30.4121 29.6511L29.2849 29.4425L29.2838 29.4486L30.4121 29.6511ZM30.6954 30.4657L31.4583 29.6099L31.4499 29.6025L31.4415 29.5953L30.6954 30.4657ZM31.5362 30.6231L31.1611 29.5397L31.1485 29.5443L31.5362 30.6231ZM41.7351 13.4239L42.8656 13.2339L42.8654 13.2324L41.7351 13.4239ZM11.2025 13.4424L12.333 13.6324L12.3331 13.6321L11.2025 13.4424ZM21.4013 30.6416L21.7814 29.56L21.776 29.5582L21.4013 30.6416ZM22.498 30.114L23.5802 30.4923L23.5825 30.4854L22.498 30.114ZM21.9679 29.0217L22.348 27.9401L22.3447 27.9389L21.9679 29.0217ZM17.8738 26.7445H16.7273V27.2917L17.1528 27.6358L17.8738 26.7445ZM22.0228 19.7556L22.6865 18.8208L22.1852 18.4649L21.6114 18.6855L22.0228 19.7556ZM30.9148 19.7556L31.3262 18.6855L30.7534 18.4653L30.2526 18.8198L30.9148 19.7556ZM35.0638 25.8095L33.9174 25.8056V25.8095H35.0638ZM35.0638 26.7445L35.7847 27.6358L36.2102 27.2917V26.7445H35.0638ZM33.17 19.2292C36.2772 15.6458 36.0132 10.257 32.5835 6.98478L31.0007 8.6437C33.5477 11.0737 33.7407 15.0713 31.4377 17.7271L33.17 19.2292ZM32.5835 6.98478C29.1521 3.71108 23.758 3.71108 20.3267 6.98478L21.9094 8.6437C24.4548 6.2152 28.4553 6.2152 31.0007 8.6437L32.5835 6.98478ZM20.3267 6.98478C16.8969 10.257 16.6329 15.6458 19.7401 19.2292L21.4724 17.7271C19.1694 15.0713 19.3624 11.0737 21.9094 8.6437L20.3267 6.98478ZM20.0838 17.4577C17.1989 18.9346 15.2812 21.8045 15.031 25.036L17.3169 25.213C17.5054 22.7794 18.9507 20.6136 21.1287 19.4986L20.0838 17.4577ZM17.0319 24.3641C12.5409 19.2974 12.8432 11.5927 17.7267 6.90063L16.1382 5.24728C10.3659 10.7933 10.0103 19.899 15.316 25.885L17.0319 24.3641ZM17.7274 6.89995C22.6024 2.20803 30.3176 2.20801 35.1926 6.89141L36.781 5.23799C31.0185 -0.298154 21.9 -0.298175 16.1375 5.24797L17.7274 6.89995ZM35.1925 6.89138C40.076 11.5834 40.3784 19.2881 35.8874 24.3548L37.6032 25.8757C42.909 19.8897 42.5534 10.784 36.7811 5.23803L35.1925 6.89138ZM37.888 25.0231C37.6276 21.7946 35.7114 18.9254 32.8263 17.4484L31.7815 19.4893C33.9592 20.6042 35.4061 22.7708 35.6026 25.2074L37.888 25.0231ZM21.5882 13.4146C21.5882 10.7255 23.7699 8.54409 26.4642 8.54409V6.25128C22.5055 6.25128 19.2953 9.45733 19.2953 13.4146H21.5882ZM26.4642 8.54409C29.1563 8.54409 31.3311 10.7233 31.3311 13.4146H33.6239C33.6239 9.4596 30.4252 6.25128 26.4642 6.25128V8.54409ZM31.3311 13.4146C31.3311 16.1049 29.1482 18.2852 26.4642 18.2852V20.578C30.4149 20.578 33.6239 17.3708 33.6239 13.4146H31.3311ZM26.4642 18.2852C23.7727 18.2852 21.5956 16.1059 21.5882 13.4115L19.2953 13.4178C19.3062 17.3697 22.5026 20.578 26.4642 20.578V18.2852ZM30.5926 27.9205C29.9079 28.1589 29.414 28.7448 29.2849 29.4425L31.5394 29.8598C31.5199 29.965 31.4465 30.051 31.3466 30.0858L30.5926 27.9205ZM29.2838 29.4486C29.1609 30.1329 29.387 30.8542 29.9494 31.3362L31.4415 29.5953C31.4796 29.6279 31.511 29.6735 31.5286 29.725C31.5458 29.7752 31.5465 29.8204 31.5405 29.8537L29.2838 29.4486ZM29.9326 31.3215C30.4898 31.8182 31.2646 31.9389 31.924 31.7019L31.1485 29.5443C31.2009 29.5254 31.2526 29.5224 31.3005 29.5311C31.3495 29.54 31.4062 29.5635 31.4583 29.6099L29.9326 31.3215ZM31.9113 31.7064C39.5781 29.0515 44.2103 21.2371 42.8656 13.2339L40.6045 13.6138C41.7639 20.5142 37.7691 27.2515 31.1611 29.5398L31.9113 31.7064ZM42.8654 13.2324C41.5107 5.23825 34.581 -0.617294 26.4642 -0.617294V1.67552C33.463 1.67552 39.4371 6.72453 40.6048 13.6154L42.8654 13.2324ZM26.4642 -0.617294C18.3469 -0.617294 11.4166 5.23903 10.0719 13.2527L12.3331 13.6321C13.4923 6.72375 19.4659 1.67552 26.4642 1.67552V-0.617294ZM10.0719 13.2524C8.72737 21.2548 13.3496 29.07 21.0266 31.725L21.776 29.5582C15.16 27.27 11.1735 20.5335 12.333 13.6324L10.0719 13.2524ZM21.0212 31.7232C22.0708 32.092 23.2169 31.5312 23.5801 30.4923L21.4158 29.7356C21.4683 29.5854 21.6274 29.5059 21.7814 29.56L21.0212 31.7232ZM23.5825 30.4854C23.9436 29.4313 23.3849 28.3045 22.348 27.9401L21.5878 30.1032C21.4466 30.0536 21.3631 29.8894 21.4134 29.7425L23.5825 30.4854ZM22.3447 27.9389C20.9803 27.4641 19.7167 26.7607 18.5947 25.8531L17.1528 27.6358C18.48 28.7093 19.9763 29.5424 21.5911 30.1044L22.3447 27.9389ZM19.0202 26.7445V25.8095H16.7273V26.7445H19.0202ZM19.0202 25.8095C19.0202 23.5968 20.3754 21.6171 22.4342 20.8256L21.6114 18.6855C18.6621 19.8194 16.7273 22.6533 16.7273 25.8095H19.0202ZM21.359 20.6903C24.4166 22.8614 28.5123 22.8601 31.577 20.6914L30.2526 18.8198C27.9802 20.4278 24.9477 20.4265 22.6865 18.8208L21.359 20.6903ZM30.5034 20.8256C32.565 21.6182 33.9249 23.5989 33.9174 25.8056L36.2102 25.8134C36.2209 22.6512 34.2726 19.8183 31.3262 18.6855L30.5034 20.8256ZM33.9174 25.8095V26.7445H36.2102V25.8095H33.9174ZM34.3428 25.8531C33.2205 26.7609 31.9563 27.4647 30.5999 27.9397L31.3576 30.1037C32.9621 29.5418 34.4578 28.709 35.7847 27.6358L34.3428 25.8531Z" fill="#00C4D1" mask="url(#path-1-inside-1_8_4724)"></path>
    <mask id="path-3-inside-2_8_4724" fill="white">
      <path d="M16.1464 38.3986L22.8177 37.4359C23.0919 37.3989 23.3387 37.223 23.4666 36.973L26.4641 30.9654L29.4525 36.973C29.5804 37.223 29.818 37.3989 30.1013 37.4451L36.7909 38.4079L31.9657 43.0548C31.7646 43.2492 31.6641 43.5361 31.7189 43.8231L32.8613 50.4047L26.8754 47.2944C26.6286 47.1648 26.327 47.1648 26.0803 47.2944L20.0944 50.4047L21.2367 43.8231C21.2824 43.5454 21.191 43.2584 20.99 43.0548L16.1647 38.3986H16.1464ZM19.0708 51.784C19.5918 52.1728 20.2954 52.2283 20.8712 51.9228L26.4641 49.0162L32.057 51.9228C32.6328 52.2283 33.3365 52.1728 33.8665 51.784C34.3966 51.3952 34.6616 50.7472 34.5428 50.0992L33.4827 43.9712L37.979 39.639C38.4542 39.1854 38.6278 38.5004 38.4268 37.871C38.2257 37.2508 37.6865 36.7879 37.0377 36.6953L30.7959 35.7974L28.0086 30.197C27.7161 29.6139 27.1221 29.2436 26.4641 29.2436C25.8153 29.2436 25.2121 29.6139 24.9288 30.197L22.1232 35.7974L15.8997 36.6953C15.2508 36.7879 14.7117 37.2415 14.5106 37.871C14.3096 38.4912 14.4832 39.1854 14.9584 39.639L19.4547 43.9712L18.3946 50.0992C18.2849 50.7472 18.5408 51.3952 19.0708 51.784Z"></path>
    </mask>
    <path d="M16.1464 38.3986L22.8177 37.4359C23.0919 37.3989 23.3387 37.223 23.4666 36.973L26.4641 30.9654L29.4525 36.973C29.5804 37.223 29.818 37.3989 30.1013 37.4451L36.7909 38.4079L31.9657 43.0548C31.7646 43.2492 31.6641 43.5361 31.7189 43.8231L32.8613 50.4047L26.8754 47.2944C26.6286 47.1648 26.327 47.1648 26.0803 47.2944L20.0944 50.4047L21.2367 43.8231C21.2824 43.5454 21.191 43.2584 20.99 43.0548L16.1647 38.3986H16.1464ZM19.0708 51.784C19.5918 52.1728 20.2954 52.2283 20.8712 51.9228L26.4641 49.0162L32.057 51.9228C32.6328 52.2283 33.3365 52.1728 33.8665 51.784C34.3966 51.3952 34.6616 50.7472 34.5428 50.0992L33.4827 43.9712L37.979 39.639C38.4542 39.1854 38.6278 38.5004 38.4268 37.871C38.2257 37.2508 37.6865 36.7879 37.0377 36.6953L30.7959 35.7974L28.0086 30.197C27.7161 29.6139 27.1221 29.2436 26.4641 29.2436C25.8153 29.2436 25.2121 29.6139 24.9288 30.197L22.1232 35.7974L15.8997 36.6953C15.2508 36.7879 14.7117 37.2415 14.5106 37.871C14.3096 38.4912 14.4832 39.1854 14.9584 39.639L19.4547 43.9712L18.3946 50.0992C18.2849 50.7472 18.5408 51.3952 19.0708 51.784Z" fill="#00C4D1"></path>
    <path d="M16.1464 38.3986L15.9827 37.2639L16.1464 39.545V38.3986ZM22.8177 37.4359L22.6643 36.2998L22.654 36.3012L22.8177 37.4359ZM23.4666 36.973L24.4871 37.4955L24.4924 37.4849L23.4666 36.973ZM26.4641 30.9654L27.4905 30.4548L26.4657 28.3944L25.4383 30.4535L26.4641 30.9654ZM29.4525 36.973L28.426 37.4837L28.432 37.4954L29.4525 36.973ZM30.1013 37.4451L29.9165 38.5766L29.9273 38.5783L29.938 38.5799L30.1013 37.4451ZM36.7909 38.4079L37.5862 39.2336L39.275 37.6071L36.9542 37.2731L36.7909 38.4079ZM31.9657 43.0548L31.1704 42.229L31.1688 42.2306L31.9657 43.0548ZM31.7189 43.8231L32.8484 43.6271L32.8468 43.6175L32.8449 43.6079L31.7189 43.8231ZM32.8613 50.4047L32.3327 51.422L34.3866 52.4892L33.9908 50.2087L32.8613 50.4047ZM26.8754 47.2944L26.3423 48.3094L26.3468 48.3117L26.8754 47.2944ZM26.0803 47.2944L26.6089 48.3117L26.6133 48.3094L26.0803 47.2944ZM20.0944 50.4047L18.9649 50.2087L18.569 52.4892L20.623 51.422L20.0944 50.4047ZM21.2367 43.8231L22.3663 44.0192L22.3679 44.0092L21.2367 43.8231ZM20.99 43.0548L21.8058 42.2494L21.796 42.2395L21.786 42.2298L20.99 43.0548ZM16.1647 38.3986L16.9608 37.5736L16.6276 37.2522H16.1647V38.3986ZM20.8712 51.9228L20.3425 50.9056L20.3339 50.9101L20.8712 51.9228ZM26.4641 49.0162L26.9928 47.999L26.4641 47.7242L25.9355 47.999L26.4641 49.0162ZM32.057 51.9228L32.5944 50.9101L32.5857 50.9056L32.057 51.9228ZM34.5428 50.0992L33.4131 50.2947L33.4152 50.306L34.5428 50.0992ZM33.4827 43.9712L32.6873 43.1457L32.2494 43.5675L32.3531 44.1666L33.4827 43.9712ZM37.979 39.639L37.1874 38.8097L37.1835 38.8135L37.979 39.639ZM38.4268 37.871L39.5188 37.5222L39.5173 37.5174L38.4268 37.871ZM37.0377 36.6953L36.8744 37.8301L36.8758 37.8303L37.0377 36.6953ZM30.7959 35.7974L29.7696 36.3082L30.0375 36.8465L30.6327 36.9322L30.7959 35.7974ZM28.0086 30.197L29.0349 29.6862L29.0333 29.6832L28.0086 30.197ZM24.9288 30.197L25.9539 30.7106L25.96 30.698L24.9288 30.197ZM22.1232 35.7974L22.2869 36.9321L22.8798 36.8465L23.1482 36.3109L22.1232 35.7974ZM15.8997 36.6953L16.0616 37.8303L16.0634 37.83L15.8997 36.6953ZM14.5106 37.871L15.6012 38.2245L15.6027 38.2198L14.5106 37.871ZM14.9584 39.639L15.7538 38.8135L15.7499 38.8097L14.9584 39.639ZM19.4547 43.9712L20.5843 44.1666L20.6879 43.5675L20.2501 43.1457L19.4547 43.9712ZM18.3946 50.0992L17.2649 49.9038L17.2642 49.9079L18.3946 50.0992ZM16.3102 39.5333L22.9815 38.5705L22.654 36.3012L15.9827 37.2639L16.3102 39.5333ZM22.9712 38.572C23.6235 38.4839 24.1909 38.0741 24.4871 37.4954L22.4461 36.4507C22.4684 36.4072 22.4985 36.3744 22.5314 36.351C22.5642 36.3275 22.6085 36.3073 22.6643 36.2998L22.9712 38.572ZM24.4924 37.4849L27.4899 31.4772L25.4383 30.4535L22.4408 36.4612L24.4924 37.4849ZM25.4377 31.4759L28.4261 37.4836L30.4789 36.4625L27.4905 30.4548L25.4377 31.4759ZM28.432 37.4954C28.7248 38.0674 29.2713 38.4712 29.9165 38.5766L30.2862 36.3137C30.3647 36.3266 30.436 36.3785 30.473 36.4507L28.432 37.4954ZM29.938 38.5799L36.6276 39.5426L36.9542 37.2731L30.2646 36.3104L29.938 38.5799ZM35.9957 37.5821L31.1704 42.229L32.7609 43.8805L37.5862 39.2336L35.9957 37.5821ZM31.1688 42.2306C30.7039 42.6801 30.4619 43.3526 30.5929 44.0383L32.8449 43.6079C32.8663 43.7197 32.8253 43.8183 32.7625 43.879L31.1688 42.2306ZM30.5894 44.0192L31.7317 50.6008L33.9908 50.2087L32.8484 43.6271L30.5894 44.0192ZM33.3898 49.3874L27.4039 46.2771L26.3468 48.3117L32.3327 51.422L33.3898 49.3874ZM27.4084 46.2795C26.8279 45.9746 26.1277 45.9746 25.5472 46.2795L26.6133 48.3094C26.5263 48.3551 26.4293 48.3551 26.3423 48.3094L27.4084 46.2795ZM25.5517 46.2771L19.5658 49.3874L20.623 51.422L26.6089 48.3117L25.5517 46.2771ZM21.2239 50.6008L22.3663 44.0192L20.1072 43.6271L18.9649 50.2087L21.2239 50.6008ZM22.3679 44.0092C22.4738 43.366 22.262 42.7114 21.8058 42.2494L20.1742 43.8602C20.1201 43.8054 20.0911 43.7248 20.1055 43.637L22.3679 44.0092ZM21.786 42.2298L16.9608 37.5736L15.3687 39.2236L20.1939 43.8797L21.786 42.2298ZM16.1647 37.2522H16.1464V39.545H16.1647V37.2522ZM18.3851 52.7027C19.2601 53.3558 20.4399 53.4494 21.4085 52.9355L20.3339 50.9101C20.151 51.0072 19.9234 50.9898 19.7566 50.8653L18.3851 52.7027ZM21.3998 52.9401L26.9928 50.0334L25.9355 47.999L20.3425 50.9056L21.3998 52.9401ZM25.9355 50.0334L31.5284 52.9401L32.5857 50.9056L26.9928 47.999L25.9355 50.0334ZM31.5197 52.9355C32.4914 53.4511 33.6667 53.3523 34.5446 52.7084L33.1885 50.8596C33.0062 50.9933 32.7742 51.0055 32.5944 50.9101L31.5197 52.9355ZM34.5446 52.7084C35.4212 52.0654 35.8701 50.9818 35.6704 49.8925L33.4152 50.306C33.4531 50.5127 33.372 50.725 33.1885 50.8596L34.5446 52.7084ZM35.6724 49.9038L34.6123 43.7758L32.3531 44.1666L33.4132 50.2947L35.6724 49.9038ZM34.2781 44.7968L38.7744 40.4646L37.1835 38.8135L32.6873 43.1457L34.2781 44.7968ZM38.7705 40.4683C39.5652 39.7098 39.8524 38.5666 39.5188 37.5222L37.3347 38.2198C37.4032 38.4342 37.3432 38.6611 37.1874 38.8097L38.7705 40.4683ZM39.5173 37.5174C39.1839 36.4891 38.2903 35.716 37.1996 35.5604L36.8758 37.8303C37.0827 37.8598 37.2675 38.0124 37.3362 38.2245L39.5173 37.5174ZM37.2009 35.5606L30.9591 34.6627L30.6327 36.9322L36.8744 37.8301L37.2009 35.5606ZM31.8222 35.2866L29.0349 29.6862L26.9822 30.7078L29.7696 36.3082L31.8222 35.2866ZM29.0333 29.6832C28.5475 28.7143 27.5582 28.0972 26.4641 28.0972V30.39C26.6861 30.39 26.8847 30.5134 26.9838 30.7109L29.0333 29.6832ZM26.4641 28.0972C25.3854 28.0972 24.3767 28.71 23.8976 29.6961L25.96 30.698C26.0475 30.5177 26.2451 30.39 26.4641 30.39V28.0972ZM23.9038 29.6836L21.0982 35.2839L23.1482 36.3109L25.9538 30.7105L23.9038 29.6836ZM21.9595 34.6628L15.736 35.5607L16.0634 37.83L22.2869 36.9321L21.9595 34.6628ZM15.7378 35.5604C14.6541 35.715 13.7534 36.4738 13.4185 37.5222L15.6027 38.2198C15.6699 38.0092 15.8476 37.8608 16.0616 37.8303L15.7378 35.5604ZM13.4201 37.5174C13.0834 38.556 13.3725 39.7101 14.1669 40.4683L15.7499 38.8097C15.5938 38.6607 15.5357 38.4264 15.6011 38.2245L13.4201 37.5174ZM14.163 40.4646L18.6592 44.7968L20.2501 43.1457L15.7538 38.8135L14.163 40.4646ZM18.325 43.7758L17.265 49.9038L19.5242 50.2947L20.5843 44.1666L18.325 43.7758ZM17.2642 49.9079C17.0837 50.9746 17.506 52.0579 18.3928 52.7084L19.7489 50.8596C19.5757 50.7325 19.4861 50.5199 19.5249 50.2905L17.2642 49.9079Z" fill="#00C4D1" mask="url(#path-3-inside-2_8_4724)"></path>
    <path d="M5.27873 38.6541L5.33046 38.3551L5.1122 38.1442L1.54808 34.7007L1.54815 34.7006L1.53982 34.6928C1.26851 34.4409 1.16811 34.0457 1.28389 33.688C1.39938 33.3312 1.71068 33.071 2.07975 33.025L2.07976 33.0251L2.08973 33.0236L7.02467 32.3201L7.32187 32.2778L7.4563 32.0093L9.68615 27.5568L9.68616 27.5568L9.68762 27.5538C9.84745 27.2301 10.1789 27.0217 10.5444 27.0217C10.9217 27.0217 11.2622 27.2326 11.43 27.5658C11.4302 27.5661 11.4303 27.5664 11.4305 27.5667L13.6411 32.0081L13.7751 32.2772L14.0726 32.32L19.0258 33.0328L19.0258 33.0328L19.03 33.0334C19.1824 33.0542 19.2933 33.1924 19.2706 33.3604C19.2501 33.5118 19.1072 33.6224 18.9498 33.6011C18.9495 33.601 18.9491 33.601 18.9488 33.6009L13.5572 32.8247C13.4575 32.8072 13.3765 32.7466 13.3314 32.66L11.0668 28.1093L10.5546 27.0801L10.0408 28.1085L7.76685 32.6596C7.72276 32.7442 7.63695 32.8024 7.55246 32.8138L7.55246 32.8138L7.54709 32.8146L2.49335 33.5458L1.33738 33.7131L2.17693 34.5252L5.81736 38.0463C5.88798 38.12 5.918 38.2207 5.90321 38.3137C5.90312 38.3142 5.90304 38.3147 5.90296 38.3153L5.04462 43.3005L4.84836 44.4404L5.87426 43.9062L10.4071 41.5457L10.4089 41.5447C10.4887 41.5028 10.591 41.5028 10.6709 41.5447L10.6726 41.5456L15.507 44.0635L15.507 44.0635L15.5128 44.0665C15.6075 44.1144 15.6623 44.2072 15.665 44.2943L15.6652 44.3028L15.6657 44.3114C15.6709 44.3973 15.6273 44.4939 15.5322 44.5559C15.4594 44.6033 15.3504 44.6143 15.2473 44.5631L10.8189 42.2509L10.5541 42.1127L10.2891 42.2505L5.86428 44.5516C5.70345 44.6287 5.5443 44.6667 5.39932 44.6667C5.11102 44.6667 4.83451 44.5375 4.65205 44.318C4.46476 44.0927 4.38603 43.8005 4.43717 43.5185L4.43796 43.514L5.27873 38.6541Z" fill="#00C4D1" stroke="#00C4D1" stroke-width="1.14641"></path>
    <mask id="path-6-inside-3_8_4724" fill="white">
      <path d="M52.1716 33.5114C51.9888 32.9467 51.5045 32.5394 50.9196 32.4561L45.9755 31.7434L43.7548 27.2908C43.4989 26.7632 42.9689 26.4299 42.384 26.4299C41.79 26.4299 41.2508 26.7632 40.9858 27.2908L38.7742 31.7341L33.821 32.4469C33.5194 32.4932 33.2635 32.6876 33.1447 32.9745C33.035 33.2615 33.0807 33.5855 33.2635 33.8261C33.4554 34.0668 33.757 34.1872 34.0586 34.1501L39.4596 33.3726C39.7429 33.3355 39.9805 33.1597 40.1084 32.9005L42.3749 28.3554L44.6504 32.9097C44.7784 33.1597 45.016 33.3355 45.2993 33.3726L50.353 34.0946L46.6975 37.6214C46.4964 37.8158 46.3959 38.1028 46.4507 38.3898L47.3189 43.3792L42.7861 41.0094C42.5394 40.8799 42.2378 40.8799 41.991 41.0094L37.1566 43.5273C36.8825 43.6662 36.7088 43.9439 36.6905 44.2493C36.6723 44.5548 36.8276 44.851 37.0835 45.0084C37.3394 45.175 37.6684 45.1843 37.9426 45.0454L42.3749 42.7312L46.8072 45.0454C47.3281 45.3139 47.9678 45.2676 48.443 44.9158C48.9182 44.5641 49.1558 43.9716 49.0553 43.3885L48.2145 38.5194L51.7787 35.0851C52.2082 34.6685 52.3635 34.0483 52.1808 33.4836"></path>
    </mask>
    <path d="M52.1716 33.5114C51.9888 32.9467 51.5045 32.5394 50.9196 32.4561L45.9755 31.7434L43.7548 27.2908C43.4989 26.7632 42.9689 26.4299 42.384 26.4299C41.79 26.4299 41.2508 26.7632 40.9858 27.2908L38.7742 31.7341L33.821 32.4469C33.5194 32.4932 33.2635 32.6876 33.1447 32.9745C33.035 33.2615 33.0807 33.5855 33.2635 33.8261C33.4554 34.0668 33.757 34.1872 34.0586 34.1501L39.4596 33.3726C39.7429 33.3355 39.9805 33.1597 40.1084 32.9005L42.3749 28.3554L44.6504 32.9097C44.7784 33.1597 45.016 33.3355 45.2993 33.3726L50.353 34.0946L46.6975 37.6214C46.4964 37.8158 46.3959 38.1028 46.4507 38.3898L47.3189 43.3792L42.7861 41.0094C42.5394 40.8799 42.2378 40.8799 41.991 41.0094L37.1566 43.5273C36.8825 43.6662 36.7088 43.9439 36.6905 44.2493C36.6723 44.5548 36.8276 44.851 37.0835 45.0084C37.3394 45.175 37.6684 45.1843 37.9426 45.0454L42.3749 42.7312L46.8072 45.0454C47.3281 45.3139 47.9678 45.2676 48.443 44.9158C48.9182 44.5641 49.1558 43.9716 49.0553 43.3885L48.2145 38.5194L51.7787 35.0851C52.2082 34.6685 52.3635 34.0483 52.1808 33.4836" fill="#00C4D1"></path>
    <path d="M50.9196 32.4561L50.756 33.5908L50.7579 33.5911L50.9196 32.4561ZM45.9755 31.7434L44.9496 32.255L45.2176 32.7924L45.812 32.878L45.9755 31.7434ZM43.7548 27.2908L42.7232 27.7911L42.7289 27.8025L43.7548 27.2908ZM40.9858 27.2908L39.9613 26.7763L39.9595 26.78L40.9858 27.2908ZM38.7742 31.7341L38.9375 32.8688L39.5326 32.7832L39.8005 32.2449L38.7742 31.7341ZM33.821 32.4469L33.6577 31.3121L33.6471 31.3137L33.821 32.4469ZM33.1447 32.9745L32.0855 32.536L32.0795 32.5505L32.0738 32.5653L33.1447 32.9745ZM33.2635 33.8261L32.3505 34.5195L32.3587 34.5303L32.3672 34.5409L33.2635 33.8261ZM34.0586 34.1501L34.1983 35.288L34.2101 35.2865L34.2219 35.2848L34.0586 34.1501ZM39.4596 33.3726L39.311 32.2358L39.3036 32.2368L39.2962 32.2378L39.4596 33.3726ZM40.1084 32.9005L39.0825 32.3889L39.0805 32.393L40.1084 32.9005ZM42.3749 28.3554L43.4004 27.843L42.3738 25.7884L41.3489 27.8438L42.3749 28.3554ZM44.6504 32.9097L43.6248 33.4221L43.6299 33.4321L44.6504 32.9097ZM45.2993 33.3726L45.4614 32.2376L45.4478 32.2358L45.2993 33.3726ZM50.353 34.0946L51.149 34.9196L52.8366 33.2914L50.5151 32.9597L50.353 34.0946ZM46.6975 37.6214L45.9015 36.7964L45.9006 36.7973L46.6975 37.6214ZM46.4507 38.3898L47.5802 38.1932L47.5786 38.1839L47.5768 38.1746L46.4507 38.3898ZM47.3189 43.3792L46.7878 44.3951L48.8466 45.4715L48.4484 43.1827L47.3189 43.3792ZM42.7861 41.0094L42.253 42.0244L42.255 42.0254L42.7861 41.0094ZM41.991 41.0094L42.5206 42.0262L42.5241 42.0244L41.991 41.0094ZM37.1566 43.5273L37.6746 44.5501L37.6862 44.5441L37.1566 43.5273ZM37.0835 45.0084L37.7091 44.0477L37.6967 44.0396L37.6841 44.0319L37.0835 45.0084ZM37.9426 45.0454L38.4605 46.0681L38.4669 46.0649L38.4732 46.0617L37.9426 45.0454ZM42.3749 42.7312L42.9055 41.715L42.3749 41.438L41.8443 41.715L42.3749 42.7312ZM46.8072 45.0454L46.2766 46.0617L46.282 46.0645L46.8072 45.0454ZM49.0553 43.3885L50.185 43.1937L50.185 43.1934L49.0553 43.3885ZM48.2145 38.5194L47.4191 37.6938L46.9814 38.1155L47.0848 38.7144L48.2145 38.5194ZM51.7787 35.0851L52.5741 35.9106L52.5768 35.908L51.7787 35.0851ZM53.2623 33.1584C52.9449 32.1777 52.1005 31.4664 51.0813 31.3212L50.7579 33.5911C50.9085 33.6125 51.0328 33.7158 51.0809 33.8645L53.2623 33.1584ZM51.0832 31.3215L46.1391 30.6087L45.812 32.878L50.756 33.5908L51.0832 31.3215ZM47.0014 31.2317L44.7807 26.7792L42.7289 27.8025L44.9496 32.255L47.0014 31.2317ZM44.7863 26.7906C44.3398 25.8698 43.4104 25.2835 42.384 25.2835V27.5763C42.5274 27.5763 42.6581 27.6566 42.7233 27.7911L44.7863 26.7906ZM42.384 25.2835C41.3571 25.2835 40.4212 25.8608 39.9613 26.7763L42.0102 27.8054C42.0804 27.6656 42.2229 27.5763 42.384 27.5763V25.2835ZM39.9595 26.78L37.7479 31.2233L39.8005 32.2449L42.0121 27.8016L39.9595 26.78ZM38.6109 30.5994L33.6577 31.3122L33.9843 33.5816L38.9375 32.8688L38.6109 30.5994ZM33.6471 31.3137C32.9601 31.4192 32.3618 31.8686 32.0855 32.536L34.2039 33.413C34.1652 33.5065 34.0787 33.5672 33.9949 33.58L33.6471 31.3137ZM32.0738 32.5653C31.8247 33.2171 31.9247 33.9588 32.3505 34.5195L34.1765 33.1328C34.2367 33.2121 34.2453 33.3059 34.2156 33.3838L32.0738 32.5653ZM32.3672 34.5409C32.8105 35.0968 33.5062 35.373 34.1983 35.288L33.9189 33.0123C34.0078 33.0013 34.1003 33.0368 34.1598 33.1114L32.3672 34.5409ZM34.2219 35.2848L39.623 34.5073L39.2962 32.2378L33.8952 33.0154L34.2219 35.2848ZM39.6082 34.5093C40.2885 34.4204 40.8467 33.9948 41.1364 33.4079L39.0805 32.393C39.096 32.3616 39.1233 32.3253 39.1658 32.2943C39.2088 32.2629 39.2598 32.2425 39.311 32.2358L39.6082 34.5093ZM41.1344 33.412L43.4008 28.8669L41.3489 27.8438L39.0825 32.3889L41.1344 33.412ZM41.3493 28.8677L43.6249 33.4221L45.6759 32.3973L43.4004 27.843L41.3493 28.8677ZM43.6299 33.4321C43.9214 34.0014 44.4755 34.4211 45.1507 34.5093L45.4478 32.2358C45.5564 32.25 45.6353 32.3179 45.6709 32.3873L43.6299 33.4321ZM45.1371 34.5074L50.1909 35.2295L50.5151 32.9597L45.4614 32.2377L45.1371 34.5074ZM49.557 33.2696L45.9015 36.7964L47.4935 38.4465L51.149 34.9196L49.557 33.2696ZM45.9006 36.7973C45.4357 37.2468 45.1937 37.9193 45.3247 38.6049L47.5768 38.1746C47.5981 38.2863 47.5571 38.3849 47.4944 38.4456L45.9006 36.7973ZM45.3213 38.5863L46.1895 43.5757L48.4484 43.1827L47.5802 38.1932L45.3213 38.5863ZM47.8501 42.3633L43.3172 39.9935L42.255 42.0254L46.7878 44.3951L47.8501 42.3633ZM43.3192 39.9945C42.7387 39.6896 42.0385 39.6896 41.458 39.9945L42.5241 42.0244C42.4371 42.0701 42.3401 42.0701 42.253 42.0244L43.3192 39.9945ZM41.4615 39.9927L36.6271 42.5105L37.6862 44.5441L42.5206 42.0262L41.4615 39.9927ZM36.6387 42.5046C35.9828 42.8368 35.5876 43.4893 35.5462 44.1809L37.8349 44.3178C37.8301 44.3985 37.7821 44.4956 37.6746 44.55L36.6387 42.5046ZM35.5462 44.1809C35.5027 44.9072 35.8661 45.6055 36.483 45.9849L37.6841 44.0319C37.741 44.0669 37.7786 44.1119 37.8015 44.1558C37.8245 44.2001 37.8386 44.2552 37.8349 44.3178L35.5462 44.1809ZM36.4579 45.9691C37.0789 46.3734 37.8457 46.3795 38.4605 46.0681L37.4246 44.0227C37.491 43.9891 37.5999 43.9766 37.7091 44.0477L36.4579 45.9691ZM38.4732 46.0617L42.9055 43.7474L41.8443 41.715L37.412 44.0292L38.4732 46.0617ZM41.8443 43.7474L46.2766 46.0617L47.3378 44.0292L42.9055 41.715L41.8443 43.7474ZM46.282 46.0645C47.1854 46.53 48.2938 46.4526 49.1251 45.8373L47.7609 43.9944C47.6418 44.0826 47.4708 44.0977 47.3323 44.0264L46.282 46.0645ZM49.1251 45.8373C49.9485 45.2277 50.3591 44.2034 50.185 43.1937L47.9256 43.5832C47.9526 43.7399 47.8879 43.9004 47.7609 43.9944L49.1251 45.8373ZM50.185 43.1934L49.3442 38.3243L47.0848 38.7144L47.9256 43.5835L50.185 43.1934ZM49.01 39.3449L52.5741 35.9106L50.9832 34.2595L47.4191 37.6938L49.01 39.3449ZM52.5768 35.908C53.3174 35.1898 53.5899 34.1144 53.2715 33.1306L51.0901 33.8367C51.1372 33.9822 51.099 34.1472 50.9805 34.2621L52.5768 35.908Z" fill="#00C4D1" mask="url(#path-6-inside-3_8_4724)"></path>
    <path d="M21.7304 40.4916H21.6576C21.5439 40.4621 21.4558 40.3646 21.4433 40.2376C21.4365 40.0795 21.5473 39.9503 21.6933 39.9289C21.6935 39.9289 21.6936 39.9289 21.6937 39.9289L24.48 39.531L24.7781 39.4884L24.9122 39.2187L26.1985 36.6314C26.2743 36.4877 26.4438 36.4314 26.5936 36.5057C26.73 36.5733 26.7926 36.7428 26.7186 36.8943L25.2222 39.8795C25.1781 39.9642 25.0922 40.0225 25.0076 40.0339L25.0076 40.0339L25.0032 40.0346L21.8084 40.4916H21.8083H21.8079H21.8076H21.8073H21.807H21.8067H21.8064H21.8061H21.8058H21.8055H21.8052H21.8049H21.8046H21.8042H21.8039H21.8036H21.8033H21.803H21.8027H21.8024H21.8021H21.8018H21.8015H21.8012H21.8008H21.8005H21.8002H21.7999H21.7996H21.7993H21.799H21.7987H21.7984H21.7981H21.7977H21.7974H21.7971H21.7968H21.7965H21.7962H21.7959H21.7956H21.7953H21.795H21.7947H21.7943H21.794H21.7937H21.7934H21.7931H21.7928H21.7925H21.7922H21.7919H21.7916H21.7913H21.7909H21.7906H21.7903H21.79H21.7897H21.7894H21.7891H21.7888H21.7885H21.7882H21.7879H21.7876H21.7873H21.787H21.7866H21.7863H21.786H21.7857H21.7854H21.7851H21.7848H21.7845H21.7842H21.7839H21.7836H21.7833H21.783H21.7827H21.7824H21.7821H21.7818H21.7815H21.7812H21.7809H21.7806H21.7803H21.78H21.7797H21.7794H21.7791H21.7788H21.7785H21.7782H21.7779H21.7776H21.7773H21.777H21.7767H21.7764H21.7761H21.7758H21.7755H21.7752H21.775H21.7747H21.7744H21.7741H21.7738H21.7735H21.7732H21.7729H21.7726H21.7723H21.772H21.7718H21.7715H21.7712H21.7709H21.7706H21.7703H21.77H21.7698H21.7695H21.7692H21.7689H21.7686H21.7683H21.7681H21.7678H21.7675H21.7672H21.7669H21.7667H21.7664H21.7661H21.7658H21.7656H21.7653H21.765H21.7647H21.7645H21.7642H21.7639H21.7637H21.7634H21.7631H21.7628H21.7626H21.7623H21.762H21.7618H21.7615H21.7612H21.761H21.7607H21.7605H21.7602H21.7599H21.7597H21.7594H21.7592H21.7589H21.7586H21.7584H21.7581H21.7579H21.7576H21.7574H21.7571H21.7569H21.7566H21.7564H21.7561H21.7559H21.7556H21.7554H21.7551H21.7549H21.7546H21.7544H21.7541H21.7539H21.7537H21.7534H21.7532H21.753H21.7527H21.7525H21.7522H21.752H21.7518H21.7515H21.7513H21.7511H21.7509H21.7506H21.7504H21.7502H21.7499H21.7497H21.7495H21.7493H21.7491H21.7488H21.7486H21.7484H21.7482H21.748H21.7477H21.7475H21.7473H21.7471H21.7469H21.7467H21.7465H21.7463H21.7461H21.7459H21.7456H21.7454H21.7452H21.745H21.7448H21.7446H21.7444H21.7442H21.744H21.7439H21.7437H21.7435H21.7433H21.7431H21.7429H21.7427H21.7425H21.7423H21.7422H21.742H21.7418H21.7416H21.7414H21.7413H21.7411H21.7409H21.7407H21.7406H21.7404H21.7402H21.74H21.7399H21.7397H21.7395H21.7394H21.7392H21.7391H21.7389H21.7387H21.7386H21.7384H21.7383H21.7381H21.738H21.7378H21.7377H21.7375H21.7374H21.7372H21.7371H21.7369H21.7368H21.7366H21.7365H21.7364H21.7362H21.7361H21.736H21.7358H21.7357H21.7356H21.7354H21.7353H21.7352H21.7351H21.735H21.7348H21.7347H21.7346H21.7345H21.7344H21.7343H21.7341H21.734H21.7339H21.7338H21.7337H21.7336H21.7335H21.7334H21.7333H21.7332H21.7331H21.733H21.7329H21.7328H21.7328H21.7327H21.7326H21.7325H21.7324H21.7323H21.7323H21.7322H21.7321H21.732H21.7319H21.7319H21.7318H21.7317H21.7317H21.7316H21.7315H21.7315H21.7314H21.7314H21.7313H21.7313H21.7312H21.7311H21.7311H21.7311H21.731H21.731H21.7309H21.7309H21.7308H21.7308H21.7308H21.7307H21.7307H21.7307H21.7306H21.7306H21.7306H21.7306H21.7305H21.7305H21.7305H21.7305H21.7305H21.7305H21.7305H21.7304H21.7304H21.7304Z" fill="#00C4D1" stroke="#00C4D1" stroke-width="1.14641"></path>
  </g>
  <defs>
    <clipPath id="clip0_8_4724">
      <rect width="51.5883" height="51.5883" fill="white" transform="translate(0.665405 0.529053)"></rect>
    </clipPath>
  </defs>
</svg>
