<svg width="25" height="25" viewBox="0 0 25 25" fill="none" xmlns="http://www.w3.org/2000/svg">
<path d="M8.85416 14.8438C8.85416 16.8438 10.5 18.4896 12.5 18.4896C14.5 18.4896 16.1458 16.8438 16.1458 14.8438" stroke="white" stroke-width="1.5" stroke-miterlimit="10" stroke-linecap="round" stroke-linejoin="round"/>
<path d="M9.17708 2.08325L5.40625 5.8645" stroke="white" stroke-width="1.5" stroke-miterlimit="10" stroke-linecap="round" stroke-linejoin="round"/>
<path d="M15.8229 2.08325L19.5937 5.8645" stroke="white" stroke-width="1.5" stroke-miterlimit="10" stroke-linecap="round" stroke-linejoin="round"/>
<path d="M2.08334 8.17708C2.08334 6.25 3.11459 6.09375 4.39584 6.09375H20.6042C21.8854 6.09375 22.9167 6.25 22.9167 8.17708C22.9167 10.4167 21.8854 10.2604 20.6042 10.2604H4.39584C3.11459 10.2604 2.08334 10.4167 2.08334 8.17708Z" stroke="white" stroke-width="1.5"/>
<path d="M3.64584 10.4167L5.11459 19.4167C5.44793 21.4376 6.25001 22.9167 9.22918 22.9167H15.5104C18.75 22.9167 19.2292 21.5001 19.6042 19.5417L21.3542 10.4167" stroke="white" stroke-width="1.5" stroke-linecap="round"/>
</svg>
