<svg width="48" height="49" viewBox="0 0 48 49" fill="none" xmlns="http://www.w3.org/2000/svg">
<path d="M0.15332 34.9817C0.333701 34.5608 0.529005 34.1461 0.693213 33.7203C2.22334 29.7477 3.74972 25.7727 5.27611 21.7977C5.60204 20.9485 5.80108 20.8593 6.67686 21.1688C8.31148 21.7482 9.9461 22.3263 11.5795 22.9118C12.2624 23.1569 12.3893 23.4466 12.1293 24.1151C12.0174 24.4011 11.9042 24.687 11.776 25.0126C12.7675 25.6031 13.744 26.1924 14.7343 26.7606C14.8437 26.8237 15.0328 26.7928 15.1697 26.7544C15.7817 26.5873 16.3913 26.4078 16.9983 26.2196C18.5459 25.738 19.9678 25.972 21.2665 26.9376C21.4394 27.0664 21.6161 27.1877 21.8039 27.3214C22.1597 27.0602 22.4956 26.8138 22.8315 26.5662C23.9125 25.7702 25.1167 25.4892 26.4378 25.7331C28.3125 26.0785 30.1835 26.4474 32.0607 26.7792C32.3282 26.8262 32.6516 26.7853 32.9004 26.6752C34.0163 26.1788 35.1135 25.6427 36.2518 25.1055C36.0975 24.7044 35.9495 24.3342 35.8151 23.9604C35.6422 23.4763 35.784 23.1359 36.2667 22.9638C38.0444 22.3251 39.8258 21.6949 41.6084 21.0723C42.1359 20.8878 42.4208 21.0425 42.641 21.6132C43.6026 24.1027 44.5592 26.5935 45.5183 29.0842C46.2436 30.9708 46.9701 32.8562 47.6941 34.7428C47.9665 35.4534 47.8608 35.6997 47.1567 36.0018C45.6054 36.6678 44.0541 37.3313 42.5029 37.9961C41.7552 38.3155 41.4729 38.2016 41.1743 37.4638C41.0934 37.2645 41.0113 37.0652 40.9081 36.8102C39.5496 37.4712 38.2098 38.1224 36.88 38.7698C37.2134 40.5042 35.9955 42.0776 33.9267 41.8374C33.7687 42.5406 33.4192 43.1385 32.7885 43.5433C32.1714 43.9394 31.5009 44.0509 30.7981 43.8676C30.1462 45.6441 29.4234 46.1318 27.606 46.0204C27.5624 46.1355 27.5139 46.2593 27.4679 46.3844C26.867 48.0135 24.9873 48.5941 23.5766 47.5815C23.2258 47.3302 22.8812 47.069 22.6038 46.8647C21.8885 47.3413 21.2205 47.7882 20.5512 48.2351H19.6195C18.6927 47.886 18.0421 47.2918 17.909 46.289C16.4473 45.9944 16.1263 45.7085 15.62 44.2737C14.5788 44.1932 13.8274 43.6968 13.5176 42.6805C13.4256 42.3796 13.3136 42.267 13.0076 42.2212C12.0634 42.0801 11.3307 41.3918 11.2374 40.4571C11.1851 39.9298 11.3332 39.3826 11.4003 38.7525C10.1128 38.0295 8.6996 37.2372 7.24785 36.4239C7.09484 36.8027 6.95801 37.1432 6.81992 37.4836C6.53132 38.1966 6.23897 38.318 5.52242 38.0122C3.99852 37.3598 2.47338 36.7124 0.956941 36.0451C0.669576 35.9188 0.419537 35.7109 0.15332 35.54C0.15332 35.3543 0.15332 35.1699 0.15332 34.9842V34.9817ZM23.4497 45.7567C23.8441 46.0427 24.18 46.32 24.5482 46.5453C25.0222 46.8362 25.5894 46.6988 25.9589 46.2445C26.3122 45.8112 26.301 45.2727 25.9191 44.8543C25.7947 44.7181 25.6454 44.6042 25.5098 44.4779C25.1491 44.1425 25.0918 43.724 25.3655 43.4207C25.6379 43.1187 26.0559 43.1249 26.4391 43.448C26.8061 43.7575 27.1556 44.0868 27.5276 44.3901C28.0625 44.827 28.7081 44.7515 29.1236 44.2229C29.5105 43.729 29.4085 43.0976 28.8711 42.6805C28.7853 42.6136 28.6932 42.5567 28.6074 42.4911C28.2018 42.1779 28.1123 41.7966 28.3635 41.4549C28.6074 41.1219 29.0154 41.086 29.4322 41.3744C29.8775 41.6827 30.2992 42.0318 30.7657 42.3017C31.0158 42.4465 31.3541 42.5629 31.6278 42.522C32.4899 42.3933 32.8233 41.3893 32.2249 40.748C31.9002 40.4002 31.486 40.1377 31.1402 39.8072C30.9822 39.6574 30.7931 39.4358 30.7956 39.2489C30.7981 39.0261 30.9399 38.6881 31.114 38.6138C31.3367 38.5185 31.7199 38.5433 31.9127 38.6819C32.5658 39.1499 33.1542 39.7045 33.7874 40.1996C34.4617 40.727 35.376 40.4027 35.5203 39.5943C35.6099 39.0917 35.3548 38.7426 34.9592 38.4616C33.7103 37.5727 32.4389 36.7136 31.231 35.7715C30.5505 35.2405 29.9521 35.0709 29.059 35.3011C26.6692 35.9176 24.838 35.0808 23.5256 32.9701C23.4933 32.9181 23.4771 32.8562 23.4572 32.8067C22.4483 33.4393 21.5166 34.0236 20.5848 34.6054C19.8434 35.0684 19.0385 35.2541 18.1814 35.0647C17.1327 34.8332 16.3005 34.312 16.0579 33.1842C15.8315 32.1332 16.2967 31.3731 17.1389 30.7715C18.1839 30.0238 19.2089 29.2488 20.2427 28.485C20.3596 28.3984 20.4716 28.3031 20.6047 28.1966C19.6655 27.4266 18.6703 27.1926 17.5557 27.5145C16.8117 27.7299 16.0641 27.9341 15.3314 28.183C14.8823 28.3352 14.5103 28.2931 14.106 28.0369C13.1817 27.4538 12.2301 26.9128 11.2523 26.3323C10.0817 29.281 8.92726 32.1852 7.76287 35.1179C9.10017 35.8669 10.4076 36.5997 11.7151 37.3326C12.2724 37.6445 12.7733 37.5839 13.2178 37.1506C13.2949 37.0751 13.3733 36.9983 13.4567 36.9302C14.6758 35.9325 16.492 36.4722 16.961 37.9713C17.0058 38.1137 17.0419 38.2573 17.0792 38.3873C18.2175 38.4975 18.9527 39.0409 19.2624 40.1303C19.2973 40.2516 19.5013 40.3804 19.6456 40.4076C20.6159 40.5883 21.2143 41.1454 21.4954 42.0801C21.534 42.2088 21.7094 42.3611 21.8425 42.3846C22.7096 42.5381 23.3204 42.9912 23.6438 43.8107C23.905 44.473 23.7894 45.1105 23.4522 45.7555L23.4497 45.7567ZM36.7805 26.414C36.6063 26.487 36.4794 26.5353 36.3563 26.5935C35.264 27.1072 34.1768 27.6358 33.0746 28.1273C32.8395 28.2325 32.5322 28.2696 32.2784 28.2251C30.3092 27.8772 28.3437 27.512 26.3819 27.1307C25.5073 26.9611 24.6564 26.9871 23.925 27.512C21.8512 29.005 19.7986 30.5264 17.7522 32.0552C17.2061 32.4638 17.2708 33.1186 17.8629 33.4677C18.526 33.8602 19.1928 33.823 19.8409 33.4194C20.9331 32.7411 22.0216 32.059 23.1139 31.3806C23.8951 30.8941 24.1974 30.9956 24.5432 31.8572C25.1602 33.3922 26.3396 34.1696 27.9854 34.0582C28.5352 34.0211 29.1 33.9134 29.615 33.724C30.1773 33.5172 30.5978 33.6002 31.0717 33.9505C32.6404 35.1105 34.2415 36.2259 35.8201 37.3734C36.054 37.543 36.2256 37.5504 36.4819 37.4217C37.6575 36.8312 38.8468 36.2655 40.0286 35.6886C40.148 35.6304 40.2599 35.5549 40.3843 35.4831C39.1789 32.4501 37.9847 29.4444 36.7805 26.414ZM37.349 24.0532C39.0172 28.2523 40.6605 32.3882 42.3175 36.5613C43.6474 35.9882 44.9349 35.4323 46.2473 34.8666C44.665 30.7505 43.0963 26.6702 41.5201 22.5702C41.1096 22.7175 40.7526 22.8462 40.3756 22.9812C40.4341 23.1619 40.4776 23.3067 40.5286 23.4503C41.2004 25.3555 41.8759 27.2582 42.5439 29.1647C42.7231 29.6759 42.5701 30.0448 42.1459 30.1822C41.7428 30.3135 41.4094 30.1203 41.2328 29.6289C40.9454 28.8317 40.668 28.0295 40.3856 27.2298C39.944 25.9819 39.5023 24.7353 39.047 23.4516C38.4785 23.6534 37.9436 23.8415 37.349 24.052V24.0532ZM6.4716 22.5764C4.88176 26.7148 3.31805 30.7814 1.74563 34.8753C3.07672 35.4447 4.3655 35.9968 5.68041 36.5601C7.33991 32.3808 8.98324 28.2436 10.644 24.0582C10.0593 23.8514 9.51568 23.6595 8.95215 23.4602C8.88621 23.641 8.83769 23.7697 8.79291 23.8985C8.11866 25.8024 7.4469 27.7076 6.77016 29.6103C6.58356 30.134 6.24643 30.3333 5.83093 30.1847C5.41046 30.0337 5.27363 29.6759 5.45526 29.1548C5.8098 28.1359 6.17179 27.1183 6.53131 26.1008C6.89456 25.072 7.25657 24.0433 7.62977 22.9849C7.23045 22.845 6.87217 22.7187 6.4716 22.5776V22.5764ZM17.8032 44.8914C18.0508 44.7862 18.2523 44.754 18.3755 44.6389C18.934 44.1103 19.4888 43.5743 20.0088 43.006C20.2937 42.6941 20.2315 42.2422 19.9242 41.9686C19.607 41.6864 19.2276 41.6332 18.9154 41.9167C18.3344 42.4428 17.7659 42.9924 17.2596 43.5879C17.1165 43.7575 17.1227 44.1573 17.216 44.3888C17.3019 44.5993 17.5992 44.7255 17.8032 44.8902V44.8914ZM13.2987 40.9226C13.55 40.8285 13.7279 40.8124 13.8286 40.7159C14.3996 40.1736 14.9706 39.6289 15.5031 39.0496C15.7643 38.7649 15.6872 38.3056 15.4147 38.0407C15.1411 37.7745 14.687 37.7089 14.3984 37.9726C13.8274 38.4925 13.2651 39.0285 12.7675 39.6153C12.6195 39.7899 12.607 40.1947 12.7028 40.4212C12.7973 40.6441 13.1108 40.774 13.2987 40.9226ZM15.5441 42.9454C15.7929 42.8364 15.9783 42.8043 16.0915 42.6966C16.6413 42.1766 17.1862 41.6493 17.7049 41.0984C17.9848 40.8 17.9425 40.316 17.6577 40.0486C17.3479 39.7589 16.9635 39.6859 16.6475 39.9669C16.0591 40.4893 15.4906 41.0414 14.9806 41.6381C14.835 41.809 14.8288 42.2162 14.9283 42.4415C15.0266 42.6619 15.3401 42.7882 15.5454 42.9466L15.5441 42.9454ZM21.6435 43.7203C21.4021 43.8169 21.228 43.8392 21.1272 43.9357C20.5587 44.4779 19.9902 45.0226 19.4602 45.6008C19.2052 45.8793 19.2923 46.3472 19.5672 46.606C19.867 46.8894 20.2999 46.9266 20.6184 46.6332C21.162 46.1318 21.7081 45.6243 22.1784 45.0573C22.3314 44.8716 22.3463 44.4581 22.2505 44.2167C22.1634 43.9976 21.84 43.8701 21.6447 43.7191L21.6435 43.7203Z" fill="white"/>
<path d="M34.9381 11.68C34.9381 17.6803 30.033 22.5689 24.0183 22.5627C17.9587 22.5565 13.0785 17.7026 13.0599 11.6651C13.0412 5.6661 17.9737 0.775008 24.0307 0.784912C30.0567 0.794815 34.9381 5.67105 34.9394 11.68H34.9381ZM14.4569 11.6243C14.4382 16.8521 18.6815 21.1453 23.8914 21.17C29.2493 21.196 33.5013 17.0019 33.5361 11.654C33.571 6.45838 29.2705 2.1875 23.9909 2.17635C18.7673 2.16521 14.4743 6.41877 14.4569 11.6243Z" fill="white"/>
<path d="M7.27888 12.3695C6.6743 12.3695 6.06972 12.3757 5.46513 12.367C4.98744 12.3596 4.69385 12.0984 4.6839 11.6936C4.6727 11.2678 4.9725 10.9855 5.47384 10.983C6.69918 10.9756 7.92328 10.9756 9.14862 10.983C9.62383 10.9855 9.9224 11.2554 9.9336 11.6565C9.94479 12.0749 9.63628 12.3621 9.13992 12.3683C8.52041 12.377 7.89964 12.3708 7.27888 12.3708V12.3695Z" fill="white"/>
<path d="M40.7013 12.3695C40.0967 12.3695 39.4921 12.3744 38.8876 12.3683C38.38 12.3633 38.0715 12.1009 38.0653 11.6849C38.0591 11.2653 38.3651 10.9842 38.8664 10.9818C40.0756 10.9756 41.286 10.9756 42.4952 10.9818C43.0065 10.9842 43.31 11.2455 43.3162 11.6639C43.3224 12.0996 43.0114 12.3645 42.4703 12.3683C41.8806 12.3732 41.2922 12.3683 40.7026 12.3683L40.7013 12.3695Z" fill="white"/>
<path d="M11.4022 15.6637C11.3151 15.7739 11.1981 16.0302 10.9979 16.154C10.0636 16.7308 9.11196 17.2805 8.15656 17.8215C7.78088 18.0344 7.3803 17.9155 7.18748 17.5801C6.99591 17.2458 7.09293 16.846 7.46365 16.6244C8.40536 16.0599 9.35204 15.5003 10.3099 14.9655C10.8237 14.6783 11.3885 14.9866 11.4009 15.6637H11.4022Z" fill="white"/>
<path d="M7.70378 5.34549C7.95755 5.45195 8.10684 5.49652 8.23746 5.57203C9.13438 6.09197 10.0313 6.61314 10.922 7.14421C11.3898 7.42275 11.5191 7.8127 11.2915 8.18037C11.0738 8.5307 10.6682 8.6025 10.2279 8.34873C9.31601 7.8226 8.41037 7.28658 7.50225 6.75426C7.16886 6.55867 6.98102 6.25909 7.1502 5.9038C7.25843 5.67478 7.5234 5.52004 7.70378 5.34673V5.34549Z" fill="white"/>
<path d="M40.9033 6.24301C40.8224 6.34823 40.7092 6.60696 40.5127 6.72951C39.5934 7.3002 38.6541 7.83995 37.7137 8.37473C37.3056 8.60623 36.8989 8.50224 36.6998 8.1581C36.4958 7.80528 36.6078 7.42152 37.0158 7.17889C37.9451 6.62429 38.8756 6.07093 39.8185 5.53986C40.3286 5.25265 40.8871 5.55595 40.9045 6.24424L40.9033 6.24301Z" fill="white"/>
<path d="M40.9021 17.1331C40.8871 17.7372 40.3796 18.0987 39.9454 17.861C38.9129 17.2977 37.9015 16.6973 36.8989 16.0821C36.5679 15.8791 36.4983 15.5324 36.6986 15.1871C36.9001 14.8392 37.2522 14.7303 37.5818 14.9122C38.6119 15.4792 39.6232 16.0808 40.6246 16.6973C40.7826 16.7939 40.8461 17.0402 40.9021 17.1319V17.1331Z" fill="white"/>
<path d="M32.1389 11.6615C32.1788 16.0822 28.5463 19.7378 24.0691 19.7824C19.5882 19.8269 15.8985 16.222 15.8525 11.7568C15.8077 7.30765 19.4203 3.60993 23.8564 3.5666C28.4405 3.52204 32.0966 7.09597 32.1377 11.6615H32.1389ZM30.7432 11.6825C30.7581 7.98109 27.7414 4.97043 24.0057 4.95681C20.311 4.94319 17.2706 7.94395 17.2507 11.6206C17.2308 15.3369 20.2401 18.3822 23.9435 18.3909C27.7115 18.4008 30.7282 15.4248 30.7432 11.6825Z" fill="white"/>
<path d="M22.9424 13.2039C24.2822 11.7741 25.5835 10.3864 26.8847 8.9999C27.0116 8.86497 27.1285 8.71518 27.2753 8.60376C27.5851 8.36732 27.9185 8.3636 28.2033 8.63595C28.4733 8.8922 28.4832 9.20911 28.2892 9.52108C28.2245 9.62506 28.1324 9.71172 28.0491 9.80209C26.5787 11.3718 25.1082 12.9403 23.6366 14.5087C23.1303 15.0485 22.7733 15.0522 22.2781 14.5273C21.482 13.683 20.6858 12.84 19.8934 11.992C19.5065 11.5785 19.4816 11.1477 19.8138 10.858C20.131 10.582 20.5428 10.6439 20.9135 11.0363C21.5815 11.7444 22.2458 12.4575 22.9437 13.2039H22.9424Z" fill="white"/>
</svg>
