<svg width="39" height="49" viewBox="0 0 39 49" fill="none" xmlns="http://www.w3.org/2000/svg">
<path d="M10.872 48.2318C10.5423 47.8988 10.1679 47.5993 9.89169 47.2279C9.31074 46.4467 8.76835 45.6359 8.23716 44.8201C8.063 44.5515 7.86271 44.4598 7.5542 44.4574C6.48312 44.4487 5.41203 44.4314 4.34219 44.393C3.01857 44.3447 2.49236 43.4237 3.11934 42.2724C4.693 39.3843 6.26791 36.4974 7.85526 33.6167C8.01449 33.3271 8.02071 33.108 7.87018 32.8121C7.46961 32.0223 6.89488 31.438 6.08753 31.0579C5.51404 30.7881 4.95051 30.491 4.4019 30.174C3.24374 29.5043 2.6603 28.4904 2.67398 27.1559C2.6802 26.5085 2.71504 25.8598 2.7536 25.2136C2.80336 24.3978 2.60308 23.6613 2.14528 22.9791C1.75715 22.4023 1.37773 21.818 1.03936 21.2126C0.428558 20.117 0.428558 18.9955 1.0319 17.8962C1.32175 17.3688 1.63649 16.8514 1.99103 16.3661C2.63915 15.4797 2.85063 14.5092 2.73121 13.4334C2.67523 12.9283 2.67274 12.4158 2.67149 11.907C2.66901 10.6307 3.21139 9.63789 4.31109 8.97931C4.93433 8.60669 5.58744 8.28235 6.23805 7.95677C6.92972 7.61015 7.44349 7.10259 7.78559 6.41306C8.03937 5.90179 8.30807 5.39795 8.56931 4.88916C9.34308 3.38259 10.6157 2.6782 12.269 2.87998C14.0927 3.10281 15.6726 2.75124 17.1455 1.61481C18.6096 0.485813 20.1696 0.552661 21.7209 1.5752C23.9962 3.07434 23.6118 3.0273 26.6185 2.85646C28.2643 2.76238 29.5183 3.37268 30.2883 4.86192C30.5583 5.3831 30.8307 5.90179 31.0944 6.42544C31.4328 7.0964 31.9304 7.60272 32.6109 7.93572C33.167 8.20807 33.7168 8.4928 34.2629 8.78619C35.5878 9.498 36.2596 10.5936 36.2061 12.1051C36.1837 12.7216 36.1551 13.3393 36.1202 13.9558C36.0767 14.7221 36.272 15.4178 36.6962 16.0603C37.0868 16.6533 37.4787 17.2487 37.827 17.8665C38.4515 18.9769 38.4477 20.1108 37.827 21.2225C37.5346 21.7474 37.2212 22.2661 36.8666 22.7514C36.2309 23.6254 36.0282 24.5835 36.1401 25.642C36.1949 26.1631 36.2023 26.6905 36.1998 27.2141C36.1936 28.4496 35.6823 29.43 34.615 30.0762C33.9805 30.46 33.3187 30.8029 32.6507 31.126C31.8222 31.5259 31.2873 32.1807 30.9327 32.9953C30.873 33.1315 30.9054 33.3543 30.9788 33.4942C31.4428 34.383 31.9354 35.2595 32.4106 36.1434C32.6719 36.6286 32.5897 37.0112 32.1991 37.2204C31.8122 37.4271 31.4565 37.2773 31.1803 36.7896C31.1044 36.6546 31.0335 36.5172 30.9589 36.3823C30.6553 35.8289 30.3505 35.2756 30.0184 34.6715C29.4847 35.4464 28.8254 35.9911 27.9185 36.1335C27.447 36.2065 26.9619 36.2139 26.4829 36.2152C25.9406 36.2152 25.3969 36.1855 24.8545 36.1533C23.8904 36.0951 23.1316 36.5432 22.3703 37.1102C24.1181 40.3078 25.8535 43.4868 27.6287 46.7352C27.7792 46.5272 27.8961 46.3737 28.0044 46.2152C28.5306 45.4514 29.0779 44.7012 29.5718 43.9176C29.94 43.3346 30.4252 43.0659 31.1119 43.0758C32.2277 43.0932 33.3449 43.0808 34.5677 43.0808C34.4632 42.8468 34.4184 42.7267 34.3587 42.6153C33.8735 41.719 33.3822 40.8265 32.897 39.9302C32.632 39.4412 32.693 39.0451 33.0538 38.8334C33.4381 38.6081 33.84 38.7641 34.1124 39.258C34.6784 40.2855 35.2457 41.313 35.8005 42.3479C36.3603 43.3915 35.8254 44.3311 34.6274 44.3831C33.5265 44.4301 32.4243 44.4438 31.3221 44.4537C31.0136 44.4561 30.8146 44.549 30.6392 44.8164C30.108 45.6322 29.5656 46.443 28.9846 47.2229C28.7085 47.5943 28.334 47.8951 28.0031 48.2269H27.258C26.7753 47.9954 26.4966 47.5906 26.2491 47.135C24.6443 44.1764 23.0259 41.2239 21.4124 38.2702C21.334 38.1266 21.2507 37.9842 21.1586 37.8208C19.988 38.4707 18.8448 38.4497 17.7115 37.8233C17.6008 38.0164 17.5149 38.1612 17.4341 38.3098C15.8281 41.2499 14.2171 44.1887 12.621 47.135C12.3735 47.5918 12.0886 47.9917 11.6109 48.2269H10.8657L10.872 48.2318ZM25.6569 34.7891C26.0438 34.8114 26.4319 34.8349 26.8188 34.8559C27.8327 34.9104 28.5928 34.5217 29.0543 33.5969C29.3292 33.0448 29.624 32.5014 29.9077 31.953C30.3617 31.074 31.0273 30.4105 31.9143 29.9599C32.5624 29.6306 33.208 29.2951 33.84 28.9361C34.503 28.5598 34.8202 27.9656 34.8115 27.2092C34.8053 26.7004 34.8066 26.1891 34.7556 25.6828C34.6237 24.3718 34.8812 23.1698 35.6537 22.0841C35.9573 21.657 36.2272 21.2039 36.5083 20.7608C37.0246 19.9474 37.0159 19.1329 36.5009 18.3233C36.2359 17.9061 35.9859 17.4777 35.696 17.0791C34.8824 15.9588 34.6137 14.7147 34.7605 13.3542C34.814 12.8652 34.8078 12.3675 34.8115 11.8748C34.8165 11.137 34.5092 10.5564 33.8661 10.1801C33.3996 9.90652 32.9281 9.63294 32.433 9.4163C31.1193 8.84066 30.1963 7.9023 29.6129 6.60246C29.3927 6.111 29.1202 5.64059 28.8428 5.17884C28.5119 4.62672 28.018 4.29 27.36 4.28257C26.5862 4.2739 25.8099 4.29 25.0362 4.32713C24.0074 4.37789 23.0744 4.11916 22.216 3.56085C21.6587 3.19813 21.0964 2.84037 20.5254 2.49994C19.8288 2.08523 19.1085 2.0679 18.4056 2.47518C17.857 2.79333 17.3196 3.13129 16.7922 3.48534C15.8865 4.09193 14.905 4.39893 13.8078 4.32466C13.2356 4.28628 12.6608 4.27267 12.0873 4.24295C11.0548 4.18849 10.2811 4.57967 9.81704 5.52422C9.63417 5.89808 9.41772 6.25708 9.24978 6.63713C8.68002 7.92582 7.74827 8.83942 6.45824 9.4163C5.92331 9.65522 5.41079 9.95109 4.9107 10.2569C4.35338 10.5973 4.08468 11.1321 4.07846 11.7746C4.07224 12.3453 4.08468 12.9172 4.13444 13.4854C4.24143 14.7283 4.01626 15.8783 3.29225 16.917C3.00115 17.3354 2.73742 17.7724 2.45255 18.1958C1.84174 19.1069 1.84796 20.0106 2.46126 20.918C2.73867 21.3277 2.99121 21.7536 3.27484 22.1572C4.01253 23.2069 4.2464 24.3706 4.13195 25.6308C4.08468 26.152 4.0797 26.6781 4.071 27.203C4.0598 27.9594 4.37702 28.5523 5.03634 28.9336C5.51777 29.2122 6.00915 29.4796 6.51422 29.7111C7.75076 30.278 8.65142 31.1557 9.21495 32.3949C9.46251 32.9408 9.76604 33.4657 10.0795 33.9782C10.3968 34.4969 10.8769 34.8076 11.4989 34.8138C12.2727 34.8225 13.049 34.8114 13.8227 34.773C14.8851 34.721 15.8417 34.9933 16.7262 35.5739C17.3209 35.9639 17.9254 36.3414 18.5462 36.6881C19.1272 37.0136 19.7405 37.0062 20.3276 36.693C20.7643 36.4603 21.2009 36.2189 21.6002 35.9292C22.8144 35.0478 24.1305 34.5613 25.6557 34.7891H25.6569ZM11.2427 46.7525C13.0241 43.4905 14.7644 40.3053 16.5048 37.1189C15.6738 36.464 14.813 36.0654 13.7717 36.1607C13.294 36.204 12.8114 36.2288 12.3312 36.2226C11.8535 36.2164 11.3696 36.1966 10.8993 36.1199C10.0148 35.9763 9.38537 35.4204 8.85169 34.6777C7.32655 37.4704 5.8325 40.2063 4.25884 43.0907C5.57375 43.0907 6.73317 43.0969 7.89382 43.0882C8.49343 43.0833 8.91639 43.342 9.24356 43.8359C9.87427 44.7867 10.5323 45.7213 11.2414 46.7513L11.2427 46.7525Z" fill="white"/>
<path d="M19.4285 33.9857C12.2245 33.9101 6.08785 28.5932 5.12375 21.5147C4.69084 18.3431 5.26432 15.3398 6.8243 12.5322C6.87655 12.4381 6.92631 12.3415 6.98602 12.2512C7.22114 11.8947 7.613 11.7795 7.94888 11.9627C8.28352 12.146 8.3905 12.5371 8.19644 12.9296C7.95759 13.4136 7.68142 13.8815 7.46372 14.3742C4.02405 22.1943 9.10083 31.2288 17.5899 32.4036C24.7417 33.3939 31.3013 28.5251 32.3686 21.4354C33.431 14.3854 28.404 7.6609 21.3281 6.70645C17.0973 6.13576 13.42 7.33532 10.3187 10.2606C10.2739 10.3027 10.2304 10.3472 10.1844 10.3893C9.77756 10.7644 9.38944 10.7916 9.08341 10.4673C8.80102 10.169 8.82342 9.74435 9.20657 9.41135C9.93058 8.78371 10.6347 8.11646 11.4308 7.59158C20.323 1.72994 32.2492 7.07288 33.7619 17.5805C34.8554 25.1728 29.5933 32.3701 21.9663 33.6947C21.1291 33.8396 20.2745 33.8928 19.4285 33.9881V33.9857Z" fill="white"/>
<path d="M24.5863 29.227C24.2703 29.1131 23.9382 29.0314 23.6421 28.8804C22.3732 28.2342 21.1106 27.5743 19.8554 26.9009C19.5655 26.7449 19.3354 26.7362 19.0393 26.8959C17.8003 27.5644 16.5413 28.1982 15.2998 28.8643C14.5994 29.2406 13.909 29.3223 13.2472 28.8333C12.6041 28.3592 12.4672 27.7056 12.614 26.9356C12.8802 25.5416 13.0905 24.1378 13.3467 22.7427C13.4015 22.4456 13.3306 22.25 13.1191 22.0482C12.0903 21.064 11.0814 20.0588 10.0464 19.0796C9.48038 18.5448 9.20048 17.932 9.43932 17.1695C9.67942 16.4057 10.2529 16.0603 11.0341 15.9575C12.4473 15.7718 13.8555 15.5391 15.2687 15.3522C15.6071 15.3076 15.7825 15.1566 15.9243 14.8632C16.5289 13.6129 17.1633 12.3774 17.7667 11.1271C18.1088 10.419 18.5927 9.93371 19.4299 9.93124C20.2646 9.92876 20.7597 10.4004 21.1031 11.111C21.7077 12.3613 22.3458 13.5955 22.9442 14.8483C23.1059 15.1863 23.3199 15.3101 23.6844 15.3584C25.1287 15.5465 26.5692 15.7694 28.0098 15.9848C28.7151 16.09 29.214 16.47 29.4329 17.1534C29.6506 17.8318 29.4827 18.4371 28.9739 18.9348C27.9227 19.9635 26.8703 20.9897 25.8042 22.0024C25.5516 22.2425 25.4795 22.4666 25.5454 22.8157C25.8179 24.2554 26.058 25.7001 26.3005 27.146C26.4834 28.2342 25.6922 29.1688 24.5851 29.2282L24.5863 29.227ZM13.9526 27.3961C13.9451 27.765 14.1802 27.8714 14.5982 27.6548C15.8633 26.9999 17.136 26.3587 18.3825 25.6704C19.1065 25.2718 19.772 25.2705 20.4935 25.6642C21.7437 26.3463 23.0114 26.9975 24.279 27.6461C24.4258 27.7216 24.6746 27.7712 24.7828 27.6969C24.8861 27.6263 24.9172 27.3701 24.8911 27.2104C24.6622 25.7942 24.4358 24.3767 24.1621 22.9692C24.0103 22.1905 24.2218 21.5877 24.7891 21.0529C25.8017 20.0959 26.7981 19.1217 27.7859 18.14C27.9339 17.9927 27.9986 17.7637 28.1018 17.573C27.9177 17.4851 27.7398 17.349 27.547 17.3193C26.1674 17.1076 24.7866 16.9045 23.4033 16.725C22.6307 16.6248 22.0859 16.272 21.745 15.5589C21.133 14.2776 20.4935 13.01 19.8467 11.7461C19.7596 11.5765 19.5643 11.4626 19.42 11.3227C19.2893 11.4601 19.1177 11.5765 19.0356 11.7386C18.3986 12.9902 17.7617 14.2417 17.1608 15.5119C16.8075 16.2583 16.2502 16.6285 15.4379 16.7312C14.0384 16.907 12.6439 17.1212 11.2493 17.3353C11.0851 17.3601 10.8189 17.4715 10.8065 17.5681C10.7866 17.7265 10.8985 17.9444 11.0229 18.0682C11.8104 18.8568 12.6177 19.6255 13.4164 20.403C14.9316 21.8798 14.9254 21.8798 14.5422 23.9633C14.3332 25.1009 14.1491 26.2435 13.9526 27.3948V27.3961Z" fill="white"/>
</svg>
