<svg width="48" height="49" viewBox="0 0 48 49" fill="none" xmlns="http://www.w3.org/2000/svg">
<path d="M0.0371094 30.9987C0.231174 30.6286 0.53471 30.4887 0.953939 30.506C1.51125 30.5308 2.07105 30.5035 2.62961 30.5159C3.07496 30.5258 3.36606 30.792 3.38223 31.172C3.3984 31.5669 3.0986 31.8727 2.63832 31.895C2.25517 31.9135 1.86952 31.8987 1.46025 31.8987V46.8171H8.10446V31.9012C7.4949 31.9012 6.89405 31.9036 6.2932 31.8999C6.12401 31.8999 5.94861 31.8999 5.78564 31.8603C5.42115 31.7699 5.22833 31.5162 5.25943 31.1473C5.29053 30.7821 5.51072 30.532 5.8889 30.5258C6.89654 30.5097 7.90667 30.5072 8.91431 30.5283C9.29124 30.5357 9.49775 30.792 9.53258 31.1609C9.55124 31.3577 9.53631 31.5583 9.53631 31.8281C10.6957 31.7229 11.8215 32.025 12.9324 31.4728C14.4427 30.7239 16.0126 30.0962 17.5502 29.4005C18.3277 29.0477 19.1325 28.8794 19.9834 28.8818C22.4503 28.888 24.9184 28.8756 27.3853 28.8868C29.2985 28.8954 30.7615 30.1668 31.0016 32.0126C31.0924 32.7071 30.9356 33.3619 30.6172 33.9809C30.5488 34.1134 30.4741 34.2433 30.3684 34.434H30.8784C32.7718 34.434 34.6652 34.4266 36.5585 34.4414C36.8944 34.4439 37.132 34.356 37.3696 34.1109C38.7928 32.6452 40.2084 31.1708 41.6751 29.7472C43.6108 27.868 46.8303 28.737 47.5679 31.3181C47.9113 32.5177 47.6986 33.6467 46.8626 34.5677C45.1558 36.4456 43.4229 38.3025 41.6465 40.1136C40.4124 41.3726 38.8836 42.1971 37.1793 42.67C36.2848 42.9188 35.378 43.1268 34.4736 43.3434C33.9747 43.4635 33.6326 43.2791 33.5294 42.8606C33.4286 42.4521 33.65 42.1377 34.1564 42.0052C34.95 41.7985 35.7487 41.6054 36.5436 41.4023C38.269 40.9616 39.7581 40.1062 40.9822 38.8212C42.5733 37.1525 44.1544 35.4726 45.7156 33.7754C46.8427 32.5498 46.309 30.6447 44.7291 30.2176C43.882 29.9885 43.1405 30.2188 42.521 30.8502C41.0357 32.3642 39.5379 33.8658 38.0613 35.3884C37.7565 35.7016 37.438 35.8341 36.9989 35.8329C32.1883 35.8205 27.3778 35.8254 22.5672 35.8254C22.4901 35.8254 22.4117 35.8267 22.3346 35.8254C21.8246 35.8106 21.531 35.5518 21.536 35.1235C21.5422 34.7001 21.8395 34.4464 22.3545 34.4377C22.7426 34.4315 23.1308 34.4365 23.5189 34.4365C24.7293 34.4365 25.9397 34.4439 27.1501 34.4303C27.44 34.4266 27.7386 34.3869 28.0172 34.3077C29.1493 33.9821 29.7563 33.1441 29.6158 32.1401C29.4627 31.047 28.5807 30.2881 27.4139 30.2795C25.7071 30.2671 24.0003 30.2758 22.2923 30.2758C21.5322 30.2758 20.7672 30.225 20.0121 30.2918C19.3751 30.3476 18.7121 30.4503 18.1261 30.6905C16.4505 31.3763 14.8009 32.1289 13.1551 32.8828C12.6488 33.1156 12.1487 33.2431 11.5889 33.2196C10.9259 33.1911 10.2603 33.2134 9.56741 33.2134V45.932C9.74282 45.932 9.90702 45.932 10.0725 45.932C12.043 45.932 14.0172 45.8701 15.984 45.9493C18.0092 46.0298 19.915 45.5185 21.8395 45.0406C24.7554 44.3164 27.6726 43.5972 30.5898 42.8767C30.6495 42.8619 30.7117 42.8544 30.7727 42.8408C31.2479 42.7418 31.5962 42.9139 31.6957 43.3001C31.8027 43.7173 31.5937 44.0503 31.0986 44.179C30.0798 44.4439 29.056 44.6928 28.0334 44.9441C25.1461 45.6534 22.2625 46.385 19.3652 47.051C18.5429 47.2405 17.6771 47.2962 16.8287 47.3098C14.5795 47.3444 12.3279 47.3209 10.0787 47.3209C9.91076 47.3209 9.74281 47.3209 9.57487 47.3209L9.67191 47.4422C9.47038 47.7072 9.26885 47.9708 9.06732 48.2358H0.0371094V30.9999V30.9987Z" fill="white"/>
<path d="M36.97 8.28508C36.8742 8.498 36.817 8.67379 36.7237 8.82729C36.3406 9.46236 35.9437 10.0888 35.5581 10.7213C35.3068 11.1323 35.3939 11.3391 35.8542 11.4505C36.5769 11.625 37.2972 11.8095 38.0237 11.9642C38.5138 12.0682 38.739 12.3455 38.7353 12.837C38.7291 13.6392 38.7315 14.4426 38.734 15.2448C38.7353 15.7177 38.5076 15.9838 38.0424 16.0866C37.3171 16.2475 36.5956 16.427 35.8741 16.604C35.3864 16.7229 35.308 16.9222 35.5743 17.3567C35.9612 17.9893 36.3455 18.6231 36.7449 19.2483C37.0036 19.6518 36.9539 19.9935 36.6142 20.324C36.037 20.8848 35.4673 21.453 34.9025 22.0262C34.5666 22.3679 34.2171 22.3951 33.8177 22.145C33.1746 21.7427 32.5265 21.349 31.8771 20.9578C31.4964 20.7288 31.2787 20.8142 31.1717 21.2438C30.9963 21.947 30.8371 22.6538 30.6692 23.3582C30.5236 23.9722 30.3283 24.1307 29.7075 24.1319C28.9624 24.1344 28.2185 24.1344 27.4733 24.1319C26.8252 24.1294 26.6398 23.9784 26.4868 23.3322C26.3264 22.6575 26.1696 21.9816 26.0066 21.3069C25.8798 20.7783 25.6944 20.7053 25.2229 20.9925C24.6009 21.3701 23.9827 21.7538 23.3594 22.1289C22.8879 22.4124 22.6304 22.3815 22.2448 22.0014C21.6825 21.4481 21.1214 20.8922 20.5654 20.3327C20.1748 19.9403 20.1461 19.7001 20.4348 19.226C20.8204 18.5921 21.216 17.9658 21.6016 17.3332C21.8492 16.9271 21.7671 16.7167 21.308 16.6028C20.5716 16.4208 19.8339 16.2438 19.0937 16.0767C18.6496 15.9764 18.4294 15.7164 18.4307 15.2633C18.4332 14.4302 18.4282 13.5958 18.4332 12.7627C18.4356 12.3356 18.6409 12.0794 19.0738 11.984C19.814 11.8206 20.5504 11.6349 21.2869 11.4542C21.7745 11.3341 21.8554 11.1323 21.5892 10.6966C21.2023 10.064 20.8192 9.42893 20.4186 8.80625C20.1586 8.40144 20.2096 8.06225 20.5492 7.73172C21.1264 7.17093 21.6974 6.60396 22.2597 6.02832C22.5943 5.68541 22.9402 5.65075 23.342 5.90328C23.9839 6.30685 24.632 6.70052 25.2814 7.09294C25.6621 7.3232 25.8872 7.23654 25.9917 6.81069C26.1684 6.09269 26.3288 5.36973 26.5018 4.65049C26.6374 4.08847 26.8314 3.93496 27.4074 3.93373C28.1986 3.93125 28.9898 3.93001 29.7809 3.93373C30.3246 3.9362 30.5249 4.0959 30.6555 4.63068C30.8234 5.31898 30.9827 6.01098 31.1456 6.70052C31.2837 7.28235 31.4591 7.35291 31.9841 7.03352C32.5924 6.66338 33.1957 6.28581 33.8053 5.91814C34.283 5.6297 34.5181 5.65694 34.9187 6.04936C35.4822 6.60148 36.0457 7.15484 36.5943 7.72305C36.7474 7.88151 36.8456 8.09196 36.9725 8.28384L36.97 8.28508ZM21.8641 19.5676C22.2572 19.9824 22.6055 20.3513 22.9738 20.7387C23.4303 20.459 23.9068 20.2225 24.316 19.9019C25.0351 19.3386 25.7367 19.2062 26.564 19.6852C26.9123 19.887 27.1573 20.0764 27.2432 20.4837C27.4024 21.2351 27.6015 21.9779 27.7843 22.7256H29.3766C29.501 22.2082 29.6727 21.7068 29.7362 21.1906C29.8456 20.2894 30.2375 19.6964 31.1668 19.4488C31.5574 19.3448 31.8659 19.3002 32.2142 19.5243C32.8623 19.9403 33.5266 20.3327 34.1474 20.7115C34.5554 20.324 34.9324 19.9675 35.3168 19.6023C35.0344 19.143 34.798 18.6664 34.4758 18.2567C33.9222 17.5535 33.7866 16.8751 34.2556 16.0569C34.4659 15.6904 34.6674 15.4366 35.0854 15.3475C35.736 15.2101 36.3841 15.0554 37.0273 14.8845C37.1442 14.8536 37.3146 14.7162 37.3196 14.6208C37.342 14.1764 37.4353 13.6726 37.2586 13.3037C37.1541 13.0846 36.6006 13.0747 36.2473 12.9744C36.0831 12.9286 35.9189 12.8654 35.7509 12.8555C34.8216 12.7949 34.2594 12.3393 34.0155 11.427C33.9173 11.0568 33.8812 10.7548 34.0951 10.423C34.5144 9.77432 34.91 9.11202 35.3404 8.41258C35.0381 8.12043 34.7221 7.84685 34.4447 7.5386C34.2544 7.32815 34.1088 7.35043 33.8924 7.49032C33.3201 7.86046 32.7305 8.20214 32.1545 8.56485C31.8535 8.75426 31.5661 8.77035 31.2339 8.62551C30.0385 8.10434 30.0347 8.113 29.7399 6.84659C29.7125 6.72651 29.6802 6.60767 29.6516 6.48759C29.3754 5.3066 29.3754 5.31898 28.1575 5.3165C27.844 5.3165 27.7234 5.41925 27.6748 5.71883C27.6139 6.09764 27.497 6.46902 27.4099 6.84412C27.1126 8.12167 27.1101 8.11424 25.9196 8.62551C25.5874 8.76787 25.3038 8.75921 25.0002 8.56485C24.4131 8.19099 23.8197 7.82456 23.2151 7.47918C23.1056 7.41728 22.8792 7.41604 22.7884 7.48784C22.4388 7.76514 22.1216 8.08329 21.7932 8.38535C22.0383 8.78149 22.241 9.10954 22.4438 9.43883C22.6541 9.78051 22.9041 10.1061 23.0621 10.47C23.1691 10.7164 23.2586 11.0692 23.1604 11.2883C22.5558 12.6278 23.026 12.4941 21.4038 12.858C21.2533 12.8914 21.1028 12.9298 20.9523 12.967C19.7269 13.2678 19.7195 13.2678 19.8339 14.5354C19.8451 14.6629 20.0093 14.8387 20.1399 14.8808C20.5504 15.0145 20.9747 15.142 21.4013 15.1853C22.3256 15.277 22.8929 15.7152 23.1355 16.6288C23.2338 16.9989 23.2736 17.2997 23.0571 17.6327C22.6391 18.2802 22.2448 18.9437 21.8591 19.5701L21.8641 19.5676Z" fill="white"/>
<path d="M41.872 14.0402C41.8521 20.5035 37.2008 25.9839 30.7991 27.0856C23.6275 28.3211 16.7307 23.4597 15.4793 16.2883C14.1905 8.90157 19.317 1.91588 26.8034 0.911914C30.1846 0.45759 33.3033 1.21892 36.126 3.13896C36.3001 3.25657 36.5216 3.41502 36.5614 3.58957C36.6124 3.81364 36.5825 4.15779 36.4382 4.29644C36.2765 4.45242 35.9468 4.4846 35.6931 4.47717C35.5338 4.47346 35.3746 4.30386 35.2216 4.19988C28.1718 -0.567422 18.3728 3.53387 16.8775 11.8788C15.6696 18.6219 20.2811 24.8908 27.1094 25.787C33.5285 26.6301 39.5507 21.9989 40.3705 15.5778C40.7872 12.3108 39.965 9.36827 37.9646 6.75003C37.9173 6.68813 37.8688 6.62871 37.824 6.56558C37.5491 6.18677 37.5727 5.78072 37.8825 5.53437C38.1935 5.28679 38.6451 5.32145 38.8988 5.70273C39.5134 6.62623 40.159 7.54107 40.6529 8.52895C41.5137 10.2522 41.8844 12.1103 41.8733 14.039L41.872 14.0402Z" fill="white"/>
<path d="M28.5892 17.3987C26.7058 17.4036 25.1794 15.8934 25.1807 14.0253C25.1819 12.1647 26.7282 10.6309 28.5917 10.642C30.4465 10.6532 31.9667 12.1635 31.9754 14.0055C31.9854 15.8797 30.4739 17.3937 28.5892 17.3987ZM28.5668 16.0085C29.6827 16.0134 30.5796 15.1308 30.5796 14.0278C30.5796 12.931 29.6653 12.0236 28.5681 12.0322C27.4858 12.0409 26.5901 12.9285 26.5777 14.0043C26.5652 15.1085 27.4535 16.0035 28.5668 16.0085Z" fill="white"/>
</svg>
