<svg width="49" height="49" viewBox="0 0 49 49" fill="none" xmlns="http://www.w3.org/2000/svg">
<path d="M13.465 48.2315C12.4822 48.0087 11.7657 47.3922 11.1039 46.6792C10.6722 46.2149 10.202 45.7854 9.75909 45.331C9.33613 44.8978 9.31001 44.3518 9.67575 43.9681C10.0564 43.5695 10.6274 43.5794 11.0765 44.0151C11.7097 44.6291 12.3255 45.2617 12.9562 45.8782C13.6317 46.538 14.3047 46.5343 14.9864 45.8695C15.4417 45.4264 15.8883 44.977 16.3374 44.5276C17.0664 43.796 17.0502 43.2105 16.32 42.4788C14.648 40.8039 12.991 39.1141 11.3191 37.438C9.85364 35.9698 8.37949 34.5102 6.90411 33.0519C6.68516 32.8353 6.45254 32.6298 6.20996 32.4404C5.83925 32.1507 5.17744 32.1767 4.78558 32.5394C4.16109 33.1175 3.55028 33.713 2.97306 34.3382C2.49785 34.8531 2.56254 35.534 3.09871 36.0824C3.74808 36.7459 4.41611 37.3921 5.07045 38.0507C5.3715 38.354 5.46107 38.713 5.27944 39.1116C5.10777 39.4904 4.79179 39.6922 4.38749 39.6415C4.15984 39.613 3.90482 39.4942 3.73812 39.3369C3.01785 38.6561 2.30877 37.9628 1.6283 37.2436C0.504964 36.0552 0.498745 34.2366 1.61462 33.0396C2.20552 32.4057 2.81756 31.7892 3.45947 31.2074C4.35764 30.3941 5.4138 30.1997 6.58067 30.5364C6.73119 30.5798 6.97626 30.5884 7.06956 30.5005C7.99759 29.6129 8.90447 28.7006 9.81508 27.7957C9.87852 27.7325 9.93574 27.662 9.99421 27.5963C8.1307 25.6664 8.85844 22.9603 11.0753 22.0516C9.88101 20.009 10.8687 17.6891 13.1154 17.0553C12.9189 16.1764 12.996 15.3197 13.4712 14.5262C13.9489 13.7302 14.663 13.2474 15.489 13.0233C15.5151 12.4353 15.4591 11.8683 15.5785 11.3422C15.9791 9.58311 17.6971 8.57048 19.5009 8.95052C19.6775 8.98766 19.9213 8.93814 20.0681 8.8354C20.8842 8.26718 21.7799 8.34889 22.6706 8.50982C24.6834 8.8713 26.69 9.27115 28.7028 9.63758C29.0809 9.7069 29.479 9.66481 29.8584 9.72795C31.7269 10.0387 32.8702 11.6381 32.5729 13.495C32.5579 13.5866 32.553 13.6782 32.538 13.8131C33.4113 14.057 34.1341 14.5274 34.6143 15.3172C35.0982 16.1108 35.1728 16.9674 34.9825 17.8538C36.9629 18.5136 37.784 19.9744 37.4618 21.9637C38.6971 22.3128 39.5567 23.0779 39.8851 24.3344C40.2085 25.576 39.8167 26.6444 38.9023 27.5827C39.6749 28.3515 40.4287 29.1004 41.1826 29.8494C41.2597 29.9261 41.348 29.9942 41.4115 30.0796C41.7486 30.5352 42.0982 30.6441 42.6965 30.4386C43.7477 30.0784 44.7628 30.3396 45.5926 31.091C46.2457 31.6828 46.8751 32.3055 47.4723 32.9529C48.6031 34.1797 48.6043 36.0044 47.425 37.1879C44.0612 40.5675 40.68 43.9285 37.2814 47.2734C36.0523 48.4828 34.1677 48.442 32.9187 47.2424C32.3601 46.7064 31.8065 46.1642 31.2716 45.6046C30.3249 44.6143 30.0861 43.4642 30.5949 42.1904C30.6957 41.9379 30.6384 41.8066 30.4655 41.637C29.3397 40.5303 28.2251 39.4112 27.0968 38.307C26.9885 38.2005 26.8144 38.1052 26.6676 38.099C25.6612 38.0582 24.6535 38.0384 23.6459 38.0185C23.305 38.0124 22.9505 37.9678 22.6258 38.0433C22.2812 38.1238 21.8981 38.255 21.6493 38.4877C20.5894 39.4843 19.578 40.5316 18.5368 41.5491C18.344 41.7373 18.3054 41.8747 18.431 42.1359C19.0145 43.3516 18.7918 44.6675 17.8538 45.6467C17.3077 46.2162 16.7802 46.8178 16.1632 47.3018C15.6669 47.6905 15.0486 47.9258 14.4838 48.2291H13.46L13.465 48.2315ZM8.4728 31.7694C11.3626 34.6588 14.2126 37.511 17.0863 40.3842C18.1536 39.3184 19.2558 38.2339 20.3393 37.1297C20.9228 36.5355 21.6207 36.2012 22.4442 36.1827C23.3113 36.1629 24.1833 36.1542 25.0454 36.231C26.5593 36.3647 27.9103 36.174 28.9192 34.8668C29.3011 34.3716 29.9219 34.3901 30.31 34.7776C30.7081 35.1738 30.6683 35.6925 30.2379 36.1765C29.8373 36.6271 29.4641 37.1025 29.1195 37.5172C29.9853 38.3874 30.9942 39.4001 31.9732 40.383C34.8046 37.5555 37.6583 34.7046 40.4374 31.9291C39.4833 30.971 38.4943 29.9781 37.4966 28.9754C37.305 29.1561 37.0948 29.3852 36.8535 29.577C36.4069 29.9311 35.8185 29.8395 35.505 29.3914C35.23 28.9977 35.2823 28.5335 35.6741 28.1361C36.3583 27.4416 37.0687 26.7719 37.7392 26.065C38.2642 25.5104 38.2368 24.6946 37.7243 24.1821C37.2018 23.6597 36.4143 23.6275 35.8309 24.1239C35.5609 24.3542 35.3209 24.6203 35.0646 24.8667C34.5757 25.3371 34.0308 25.3767 33.6278 24.9732C33.2359 24.582 33.2807 24.015 33.7484 23.5421C34.2597 23.0246 34.7922 22.527 35.286 21.9934C35.7998 21.4364 35.7737 20.6206 35.2674 20.1081C34.7374 19.572 33.9288 19.5535 33.3404 20.0796C33.0518 20.3371 32.7881 20.6218 32.5107 20.8917C32.0131 21.3769 31.4371 21.4227 31.039 21.0118C30.6496 20.6094 30.6981 20.066 31.1758 19.5832C31.7307 19.0224 32.3091 18.4826 32.8428 17.9021C33.3727 17.3252 33.3217 16.5007 32.7719 15.9894C32.2382 15.493 31.4396 15.498 30.876 16.0167C30.58 16.289 30.3075 16.5861 30.0164 16.8634C29.5574 17.3017 28.9988 17.3363 28.6095 16.9575C28.2064 16.5651 28.24 15.9969 28.7065 15.5264C29.2402 14.9879 29.7826 14.4581 30.32 13.9221C30.6459 13.5977 30.8076 13.2066 30.7429 12.7473C30.667 12.2162 30.3772 11.8324 29.8684 11.6418C29.321 11.4363 28.8197 11.5576 28.4079 11.9562C27.608 12.7312 26.8305 13.5309 26.0282 14.3046C25.8105 14.5151 25.7595 14.6636 25.9 14.9669C26.7099 16.7186 25.8067 18.7686 23.9818 19.3628C23.6621 19.4668 23.32 19.5039 22.9667 19.577C22.9493 19.6513 22.9219 19.7379 22.9094 19.827C22.6507 21.5527 21.6878 22.5196 19.9487 22.7622C19.6713 22.8006 19.6439 22.938 19.6191 23.1571C19.4486 24.6897 18.3216 25.8187 16.7827 26.0143C16.6496 26.0316 16.5178 26.0625 16.4182 26.0811C16.3436 26.4413 16.3075 26.7657 16.2092 27.0715C15.6171 28.9098 13.5508 29.7986 11.7557 29.0113C11.6164 28.9506 11.3614 28.916 11.2805 28.9927C10.3114 29.9249 9.36475 30.8806 8.47405 31.7694H8.4728ZM46.5355 35.0425C46.3365 34.6984 46.2096 34.3604 45.9844 34.1104C45.5092 33.583 44.9892 33.094 44.4767 32.6013C43.8609 32.0071 43.1581 32.0034 42.546 32.61C39.2519 35.8769 35.9615 39.1475 32.6749 42.4219C32.0653 43.0297 32.0616 43.7316 32.6525 44.3395C33.1488 44.8482 33.6539 45.3496 34.1677 45.8423C34.7747 46.4254 35.4701 46.4477 36.061 45.8634C39.38 42.5779 42.6928 39.2862 45.9931 35.9809C46.2283 35.7457 46.3402 35.3904 46.5368 35.0413L46.5355 35.0425ZM19.4785 20.9263C20.2746 20.883 20.7088 20.6268 20.929 20.0845C21.1517 19.5337 21.0621 19.0125 20.6404 18.5879C19.5171 17.4576 18.3912 16.3299 17.2467 15.2219C16.6583 14.6525 15.8286 14.6735 15.2874 15.2219C14.7488 15.7678 14.7525 16.5812 15.3347 17.1717C16.4319 18.2846 17.5341 19.3925 18.6649 20.4708C18.9249 20.7196 19.3118 20.8372 19.4797 20.9276L19.4785 20.9263ZM22.8808 17.7411C23.7019 17.6656 24.3351 17.0578 24.3152 16.2903C24.304 15.8768 24.1721 15.5871 23.7044 15.3828C21.7861 14.5485 20.3742 13.1818 19.5593 11.232C19.4847 11.0525 19.2782 10.8669 19.0916 10.8037C18.5044 10.6044 17.8824 10.8594 17.5602 11.3732C17.2194 11.9166 17.2766 12.5863 17.7593 13.0716C19.1526 14.4754 20.5521 15.8731 21.9752 17.2484C22.2128 17.4787 22.5761 17.5802 22.8808 17.7424V17.7411ZM17.8215 22.7671C17.707 22.5047 17.6548 22.1828 17.4682 21.9885C16.5476 21.0291 15.6134 20.0796 14.6406 19.1734C14.1442 18.7117 13.3443 18.7971 12.8579 19.2625C12.3678 19.7317 12.2446 20.5252 12.7099 21.0254C13.6342 22.0219 14.6057 22.9788 15.6022 23.9048C16.0065 24.2811 16.5538 24.2613 17.0452 24.0051C17.5229 23.755 17.7593 23.3366 17.8202 22.7671H17.8215ZM14.4975 25.9734C14.4627 25.857 14.4614 25.6008 14.332 25.4584C13.8469 24.9274 13.3679 24.3715 12.797 23.9444C12.2844 23.5619 11.548 23.7649 11.1275 24.2564C10.7232 24.7293 10.6809 25.4782 11.0976 25.961C11.4684 26.3918 11.8789 26.7966 12.318 27.1569C12.7484 27.5097 13.2659 27.5208 13.7586 27.2671C14.235 27.0207 14.4739 26.606 14.4975 25.9709V25.9734ZM21.352 10.1872C21.3233 10.2578 21.2947 10.3271 21.2674 10.3977C21.7612 11.8473 22.8286 12.7894 24.0203 13.5049C24.8538 12.6767 25.6338 11.9005 26.4399 11.0996C24.7605 10.7988 23.0562 10.493 21.3532 10.1872H21.352Z" fill="white"/>
<path d="M8.18801 1.91901C8.43681 1.62686 8.59978 1.27652 8.86226 1.17254C9.12972 1.06731 9.5166 1.14406 9.8077 1.253C10.0341 1.33718 10.1983 1.59096 10.3849 1.77541C11.3291 2.71006 12.2733 3.64346 13.2113 4.58306C13.689 5.06214 13.7325 5.61302 13.3407 6.01411C12.9426 6.42263 12.3654 6.37807 11.8715 5.88908C10.8166 4.84674 9.75918 3.80811 8.72169 2.74967C8.51891 2.54293 8.40074 2.25573 8.18677 1.91778L8.18801 1.91901Z" fill="white"/>
<path d="M39.5085 1.05002C40.0633 1.05497 40.3569 1.23942 40.5112 1.59471C40.6804 1.98466 40.607 2.35357 40.3022 2.65934C39.6018 3.36125 38.899 4.05821 38.1961 4.75764C37.7905 5.16121 37.39 5.57221 36.9757 5.96711C36.5403 6.38182 35.983 6.40039 35.6036 6.03148C35.2217 5.6601 35.2192 5.09065 35.6372 4.66851C36.7381 3.55808 37.8465 2.45508 38.9686 1.36569C39.1453 1.19486 39.4053 1.10944 39.5085 1.05002Z" fill="white"/>
<path d="M25.3933 3.80318C25.3933 4.46672 25.3995 5.13025 25.3908 5.79255C25.3834 6.40657 25.0263 6.79652 24.4827 6.8089C23.9291 6.82128 23.5298 6.40904 23.5261 5.7876C23.5174 4.46053 23.5174 3.1347 23.5261 1.80763C23.5298 1.19237 23.9391 0.77395 24.4877 0.788805C25.0238 0.80366 25.3846 1.20351 25.3921 1.81134C25.3995 2.47488 25.3933 3.13841 25.3933 3.80071V3.80318Z" fill="white"/>
<path d="M7.24339 42.5049C6.70971 42.5135 6.29048 42.105 6.29421 41.5789C6.2967 41.085 6.71468 40.6604 7.20855 40.6504C7.71984 40.6393 8.16021 41.0763 8.15773 41.5913C8.15524 42.1001 7.75841 42.4975 7.24339 42.5061V42.5049Z" fill="white"/>
<path d="M32.6251 33.4171C32.1101 33.427 31.7021 33.0445 31.6822 32.5332C31.661 32.0096 32.0728 31.5713 32.5953 31.5614C33.1053 31.5515 33.5531 31.9947 33.5494 32.5023C33.5444 32.9999 33.1339 33.4072 32.6251 33.4171Z" fill="white"/>
</svg>
