<?xml version="1.0" encoding="UTF-8"?>
<svg xmlns="http://www.w3.org/2000/svg" width="57" height="68" viewBox="0 0 57 68" fill="none">
  <path d="M31.4086 36.5987H16.1079C15.5964 36.5987 15.172 37.0122 15.172 37.5346C15.172 38.0569 15.5855 38.4705 16.1079 38.4705H31.3977C31.9092 38.4705 32.3336 38.0569 32.3336 37.5346C32.3336 37.0122 31.9201 36.5987 31.3977 36.5987" fill="#FFD966"></path>
  <path d="M16.1079 42.7908H23.7582C24.2697 42.7908 24.6941 42.3773 24.6941 41.8549C24.6941 41.3325 24.2806 40.919 23.7582 40.919H16.1079C15.5964 40.919 15.172 41.3325 15.172 41.8549C15.172 42.3773 15.5855 42.7908 16.1079 42.7908Z" fill="#FFD966"></path>
  <path d="M16.1079 49.7883H27.4692C27.9806 49.7883 28.405 49.3747 28.405 48.8524C28.405 48.33 27.9915 47.9165 27.4692 47.9165H16.1079C15.5964 47.9165 15.172 48.33 15.172 48.8524C15.172 49.3747 15.5855 49.7883 16.1079 49.7883Z" fill="#FFD966"></path>
  <path d="M16.1079 54.1194H31.3977C31.9092 54.1194 32.3336 53.7059 32.3336 53.1835C32.3336 52.6612 31.9201 52.2476 31.3977 52.2476H16.1079C15.5964 52.2476 15.172 52.6612 15.172 53.1835C15.172 53.7059 15.5855 54.1194 16.1079 54.1194Z" fill="#FFD966"></path>
  <path d="M49.4209 14.9602C49.6284 14.7528 49.905 14.6441 50.1915 14.6441C50.478 14.6441 50.7546 14.7528 50.9621 14.9602C51.3869 15.385 51.3869 16.0766 50.9621 16.5014L40.836 26.6275C40.6285 26.8349 40.3519 26.9436 40.0654 26.9436C39.7789 26.9436 39.5023 26.825 39.2949 26.6275L34.5529 21.8855C34.3454 21.678 34.2368 21.4014 34.2368 21.1149C34.2368 20.8284 34.3454 20.5518 34.5529 20.3443C34.7604 20.1369 35.0271 20.0282 35.3235 20.0282C35.6198 20.0282 35.8866 20.1468 36.094 20.3443L39.4628 23.7131C39.7888 24.0391 40.3322 24.0391 40.6582 23.7131L49.4209 14.9504V14.9602ZM31.2039 12.3818C31.2039 12.5399 31.0754 12.6683 30.9174 12.6683H18.035C17.877 12.6683 17.7485 12.5399 17.7485 12.3818V8.36099C17.7485 7.33356 18.5883 6.50372 19.6157 6.50372H29.3466C30.374 6.50372 31.2138 7.34344 31.2138 8.36099V12.3818H31.2039ZM37.2894 19.1589C36.7658 18.6353 36.0644 18.3488 35.3235 18.3488C34.5825 18.3488 33.8811 18.6353 33.3575 19.1589C32.8339 19.6824 32.5376 20.3839 32.5376 21.1248C32.5376 21.8657 32.824 22.5671 33.3575 23.0907L38.0995 27.8327C38.6231 28.3563 39.3245 28.6428 40.0654 28.6428C40.8064 28.6428 41.5078 28.3563 42.0314 27.8327L52.1575 17.7066C52.681 17.183 52.9774 16.4816 52.9774 15.7407C52.9774 14.9997 52.6909 14.2983 52.1575 13.7747C51.6339 13.2511 50.9324 12.9548 50.1915 12.9548C49.4506 12.9548 48.7492 13.2413 48.2256 13.7747L47.1092 14.8911C46.2794 14.2588 45.3705 13.755 44.4122 13.3895V12.1249C44.4122 10.5937 43.1675 9.33902 41.6263 9.33902H32.9031V8.37087C32.9031 6.40493 31.3125 4.81439 29.3466 4.81439H19.6157C17.6497 4.81439 16.0592 6.40493 16.0592 8.37087V12.3818C16.0592 13.4685 16.9483 14.3576 18.035 14.3576H30.9273C32.014 14.3576 32.9031 13.4685 32.9031 12.3818V11.0185H41.6263C42.229 11.0185 42.713 11.5025 42.713 12.1052V12.8856C42.0116 12.7473 41.3003 12.6683 40.5791 12.6683C34.6517 12.6683 29.8208 17.4893 29.8208 23.4266C29.8208 29.364 34.6418 34.185 40.5791 34.185C41.3003 34.185 42.0116 34.1158 42.713 33.9775V59.7422C42.713 60.3448 42.229 60.8289 41.6263 60.8289H7.33596C6.73333 60.8289 6.24926 60.3448 6.24926 59.7422V12.1151C6.24926 11.5124 6.73333 11.0283 7.33596 11.0283H12.967C13.4314 11.0283 13.8167 10.6529 13.8167 10.1787C13.8167 9.70455 13.4412 9.32914 12.967 9.32914H7.33596C5.8047 9.32914 4.55005 10.5739 4.55005 12.1151V59.7422C4.55005 61.2735 5.79482 62.5281 7.33596 62.5281H41.6263C43.1576 62.5281 44.4122 61.2834 44.4122 59.7422V33.4836C45.7657 32.9698 47.0006 32.1894 48.0675 31.162C50.0828 29.2158 51.2387 26.5978 51.3375 23.8119C51.3573 23.3476 50.9917 22.9524 50.5175 22.9327C50.0532 22.9129 49.658 23.2784 49.6383 23.7526C49.5 27.6845 46.9215 30.9347 43.3651 32.0708C43.3157 32.0807 43.2663 32.1005 43.2267 32.1202C42.387 32.3672 41.5078 32.5055 40.5791 32.5055C35.5803 32.5055 31.52 28.4353 31.52 23.4464C31.52 18.4574 35.5902 14.3872 40.5791 14.3872C42.4957 14.3872 44.353 14.9899 45.8941 16.1062L40.0556 21.9448L37.2795 19.1687L37.2894 19.1589Z" fill="#FFD966"></path>
  <path d="M27.5981 26.0645H17.2744C16.8101 26.0645 16.4248 26.4399 16.4248 26.9141C16.4248 27.3883 16.8002 27.7637 17.2744 27.7637H27.5981C28.0624 27.7637 28.4477 27.3883 28.4477 26.9141C28.4477 26.4399 28.0723 26.0645 27.5981 26.0645Z" fill="#FFD966"></path>
  <path d="M15.6641 17.3215H9.96386C9.49954 17.3215 9.11426 17.6969 9.11426 18.1711C9.11426 18.6453 9.48966 19.0207 9.96386 19.0207H15.6641C16.1284 19.0207 16.5137 18.6453 16.5137 18.1711C16.5137 17.6969 16.1383 17.3215 15.6641 17.3215Z" fill="#FFD966"></path>
  <path d="M17.2744 31.6856H27.5882C28.0525 31.6856 28.4378 31.3102 28.4378 30.836C28.4378 30.3618 28.0624 29.9864 27.5882 29.9864H17.2744C16.8101 29.9864 16.4248 30.3618 16.4248 30.836C16.4248 31.3102 16.8002 31.6856 17.2744 31.6856Z" fill="#FFD966"></path>
  <path d="M11.7622 30.4706C10.8138 30.4706 10.0333 29.7001 10.0333 28.7418C10.0333 27.7835 10.8039 27.0129 11.7622 27.0129C12.7204 27.0129 13.491 27.7934 13.491 28.7418C13.491 29.6902 12.7204 30.4706 11.7622 30.4706ZM11.7622 25.3236C9.87526 25.3236 8.34399 26.8549 8.34399 28.7418C8.34399 30.6287 9.87526 32.1599 11.7622 32.1599C13.6491 32.1599 15.1803 30.6287 15.1803 28.7418C15.1803 26.8549 13.6491 25.3236 11.7622 25.3236Z" fill="#FFD966"></path>
  <path d="M10.0352 41.6046C8.99051 41.6046 8.1308 40.7449 8.1308 39.7002C8.1308 38.6555 8.97963 37.7958 10.0352 37.7958C11.0908 37.7958 11.9396 38.6555 11.9396 39.7002C11.9396 40.7449 11.0908 41.6046 10.0352 41.6046ZM10.0352 35.9349C7.95668 35.9349 6.2699 37.6217 6.2699 39.7002C6.2699 41.7787 7.95668 43.4655 10.0352 43.4655C12.1138 43.4655 13.8005 41.7787 13.8005 39.7002C13.8005 37.6217 12.1138 35.9349 10.0352 35.9349Z" fill="#FFD966"></path>
  <path d="M10.0352 52.9225C8.99051 52.9225 8.1308 52.0737 8.1308 51.0181C8.1308 49.9625 8.97963 49.1136 10.0352 49.1136C11.0908 49.1136 11.9396 49.9734 11.9396 51.0181C11.9396 52.0628 11.0908 52.9225 10.0352 52.9225ZM10.0352 47.2527C7.95668 47.2527 6.2699 48.9395 6.2699 51.0181C6.2699 53.0966 7.95668 54.7834 10.0352 54.7834C12.1138 54.7834 13.8005 53.0966 13.8005 51.0181C13.8005 48.9395 12.1138 47.2527 10.0352 47.2527Z" fill="#FFD966"></path>
</svg>
