<svg width="261" height="195" viewBox="0 0 261 195" fill="none" xmlns="http://www.w3.org/2000/svg">
<path d="M204.028 183.65H61.0977L61.1621 168.665C61.3252 130.748 91.9314 99.5037 130.271 98.8589C130.686 98.8519 131.1 98.8484 131.516 98.8484H131.516C140.143 98.842 148.702 100.362 156.788 103.338C183.916 113.328 202.125 138.711 203.336 167.312L204.028 183.65Z" fill="#2192D1"/>
<path d="M260.924 183.65H0.0756836V184.233H260.924V183.65Z" fill="#2F2E41"/>
<path d="M130.142 116.627L136.44 121.156L142.738 174.375H157.624L152.471 113.796L131.86 105.87L130.142 116.627Z" fill="#2F2E41"/>
<path d="M103.805 99.6415C103.805 99.6415 102.088 118.891 108.958 119.457C115.829 120.023 142.166 113.796 142.166 113.796L154.762 157.956L173.655 148.331C173.655 148.331 162.205 98.5092 155.334 95.6784C148.464 92.8476 125.562 87.186 125.562 87.186L108.958 90.0168L103.805 99.6415Z" fill="#2F2E41"/>
<path d="M145.028 173.243C145.028 173.243 141.593 186.265 143.883 187.397C145.261 188.078 146.599 188.834 147.891 189.662V187.397C147.891 187.397 150.754 190.228 150.754 192.492C150.754 194.757 166.212 195.323 166.212 192.492C166.212 189.662 165.64 186.265 162.777 184.566C159.915 182.868 156.479 173.243 156.479 173.243H145.028Z" fill="#2F2E41"/>
<path d="M161.632 150.031L162.777 160.788L166.785 167.582L176.518 156.825L169.075 144.935L161.632 150.031Z" fill="#2F2E41"/>
<path d="M170.793 160.788C170.793 160.788 172.901 153.66 174.996 154.393C177.091 155.126 185.106 162.486 185.106 162.486L190.832 165.883C190.832 165.883 202.283 167.015 198.847 170.412C195.412 173.809 182.816 178.339 177.091 176.074C171.365 173.809 170.22 173.243 170.22 173.243L168.503 174.375L161.632 172.677L162.777 160.788C162.777 160.788 164.495 165.883 170.793 160.788Z" fill="#2F2E41"/>
<path d="M123.272 28.8717C130.545 28.8717 136.44 23.0417 136.44 15.85C136.44 8.65837 130.545 2.82837 123.272 2.82837C115.999 2.82837 110.103 8.65837 110.103 15.85C110.103 23.0417 115.999 28.8717 123.272 28.8717Z" fill="#9F616A"/>
<path d="M114.97 23.4936C114.97 23.4936 116.115 35.3829 112.68 35.3829C109.244 35.3829 113.252 50.1031 122.413 50.1031C131.574 50.1031 135.009 32.5521 135.009 32.5521C135.009 32.5521 128.711 30.2875 129.856 22.9274C131.001 15.5674 114.97 23.4936 114.97 23.4936Z" fill="#9F616A"/>
<path d="M114.058 34.476L109.244 36.5152L96.1819 41.9801C95.6553 42.2004 95.2147 42.5832 94.926 43.0713C94.6373 43.5594 94.5158 44.1267 94.5797 44.6886L99.5113 88.0358C99.5113 88.0358 94.3584 98.7928 102.374 99.3589L103.519 103.322L112.68 92.565L147.032 91.4327L147.605 36.5152L131.887 30.3733C131.887 30.3733 129.749 42.0614 114.058 34.476Z" fill="#3F3D56"/>
<path d="M98.08 43.5924L95.9642 42.9946C95.727 42.9276 95.4781 42.9111 95.2339 42.9462C94.9898 42.9813 94.7559 43.0673 94.5479 43.1983C94.3398 43.3294 94.1622 43.5026 94.0268 43.7066C93.8914 43.9106 93.8013 44.1406 93.7625 44.3816L88.1479 79.2079C87.7099 81.787 88.1292 84.4369 89.3428 86.7605C91.0776 90.0086 94.6806 92.9544 102.088 89.4513L107.241 52.6509L98.08 43.5924Z" fill="#3F3D56"/>
<path d="M141.021 35.666L147.891 36.7983L166.785 62.8417L168.503 67.3709L179.381 63.974C179.381 63.974 178.808 69.0694 184.534 68.5033C184.534 68.5033 177.663 87.1865 163.35 81.5249C149.036 75.8633 144.456 58.8785 144.456 58.8785L141.021 35.666Z" fill="#3F3D56"/>
<path d="M149.036 46.9895L123.272 36.7983L122.127 40.1954L134.15 50.3862L149.036 46.9895Z" fill="#CCCCCC"/>
<path d="M115.343 16.6806C115.83 16.5522 115.901 15.9137 115.917 15.4161C116.005 12.7519 117.627 10.018 120.206 9.24242C121.196 8.97406 122.232 8.91767 123.245 9.07704C124.692 9.26757 126.089 9.72838 127.361 10.4349C128.033 10.8083 128.692 11.2581 129.454 11.3722C129.957 11.4475 132.136 12.0739 132.637 12.1621C133.739 12.3559 134.762 13.3305 135.819 12.9678C136.831 12.6209 137.055 11.326 137.079 10.2677C137.135 7.85677 135.284 4.51991 133.654 2.72635C132.417 1.36527 130.554 0.736986 128.733 0.410288C126.606 0.0723063 124.45 -0.0573697 122.297 0.023144C119.383 0.0745382 116.388 0.296961 113.76 1.54383C111.132 2.79071 108.925 5.27229 108.799 8.15175C108.773 8.75156 108.836 9.35388 108.785 9.95214C108.66 11.4116 107.876 12.7298 107.509 14.1486C107.246 15.1896 107.207 16.2735 107.393 17.3305C107.58 18.3874 107.989 19.3939 108.593 20.2851C109.568 21.7043 113.468 22.9927 113.412 24.7076C114.117 23.9855 112.455 23.2586 113.159 22.5364C113.475 22.298 113.699 21.9596 113.793 21.5778C113.887 21.196 113.846 20.7938 113.676 20.4385L112.927 17.5515C112.79 17.0229 112.656 16.4507 112.863 15.9449C113.665 13.9842 114.532 16.8947 115.343 16.6806Z" fill="#2F2E41"/>
<path d="M122.127 40.1959L111.248 82.0916L153.617 96.812L178.236 76.43L193.694 30.5713L168.502 48.6883L122.127 40.1959Z" fill="#F2F2F2"/>
<path d="M124.204 44.7342L124.057 45.2815L165.281 56.0385L165.427 55.4912L124.204 44.7342Z" fill="#E4E4E4"/>
<path d="M123.059 47.5645L122.913 48.1118L164.136 58.8689L164.282 58.3215L123.059 47.5645Z" fill="#E4E4E4"/>
<path d="M122.486 50.3955L122.34 50.9429L163.563 61.6999L163.709 61.1526L122.486 50.3955Z" fill="#E4E4E4"/>
<path d="M121.914 53.2264L121.767 53.7737L162.99 64.5307L163.136 63.9834L121.914 53.2264Z" fill="#E4E4E4"/>
<path d="M121.341 56.0574L121.195 56.6047L162.418 67.3618L162.564 66.8145L121.341 56.0574Z" fill="#E4E4E4"/>
<path d="M120.768 58.8882L120.622 59.4355L161.845 70.1926L161.991 69.6453L120.768 58.8882Z" fill="#E4E4E4"/>
<path d="M120.196 61.7188L120.05 62.2661L161.273 73.0231L161.419 72.4758L120.196 61.7188Z" fill="#E4E4E4"/>
<path d="M119.623 64.5498L119.477 65.0972L160.7 75.8542L160.846 75.3069L119.623 64.5498Z" fill="#E4E4E4"/>
<path d="M119.051 67.3802L118.905 67.9275L160.128 78.6845L160.274 78.1372L119.051 67.3802Z" fill="#E4E4E4"/>
<path d="M104.669 71.0135C104.669 71.0135 117.546 63.4079 123.272 68.5033C128.997 73.5987 106.668 80.9588 106.668 80.9588L104.669 71.0135Z" fill="#9F616A"/>
<path d="M90.6369 74.7309L107.241 68.5032C107.241 68.5032 104.378 79.2602 110.103 79.8264L102.088 89.4511C102.088 89.4511 86.0565 89.4511 90.6369 74.7309Z" fill="#3F3D56"/>
<path d="M134.329 74.4993L156.362 81.8421L151.147 93.0808L129.115 85.7383L134.329 74.4993Z" fill="#E4E4E4"/>
<path d="M173.369 50.6691L189.973 38.2134L185.393 53.4999L168.216 65.9553L173.369 50.6691Z" fill="#CCCCCC"/>
<path d="M181.785 58.9363L165.181 71.3914L165.527 71.8425L182.131 59.3874L181.785 58.9363Z" fill="#E4E4E4"/>
<path d="M180.639 65.1643L164.035 77.6194L164.381 78.0705L180.985 65.6155L180.639 65.1643Z" fill="#E4E4E4"/>
<path d="M182.816 69.0692C182.816 69.0692 197.13 60.5768 187.969 57.1798C178.808 53.7829 178.808 66.8045 178.808 66.8045C178.808 66.8045 178.236 69.6353 182.816 69.0692Z" fill="#9F616A"/>
<path opacity="0.1" d="M98.9388 50.1033L98.3662 72.1836L107.241 69.6792L100.084 69.9187L98.9388 50.1033Z" fill="black"/>
<path d="M36.4633 173.665C38.253 180.207 44.3834 184.259 44.3834 184.259C44.3834 184.259 47.612 177.703 45.8222 171.161C44.0324 164.619 37.9021 160.567 37.9021 160.567C37.9021 160.567 34.6735 167.122 36.4633 173.665Z" fill="#8985A8"/>
<path d="M39.0931 172.259C44.0043 176.987 44.6041 184.254 44.6041 184.254C44.6041 184.254 37.2414 183.857 32.3303 179.129C27.4191 174.402 26.8193 167.134 26.8193 167.134C26.8193 167.134 34.182 167.532 39.0931 172.259Z" fill="#3F3D56"/>
<path d="M206.091 110.505H197.25V119.248H206.091V110.505Z" fill="#F2F2F2"/>
<path d="M170.727 11.4233H161.886V20.1658H170.727V11.4233Z" fill="#F2F2F2"/>
<path d="M59.6242 100.013C62.0656 100.013 64.0447 98.0564 64.0447 95.6422C64.0447 93.2281 62.0656 91.271 59.6242 91.271C57.1828 91.271 55.2037 93.2281 55.2037 95.6422C55.2037 98.0564 57.1828 100.013 59.6242 100.013Z" fill="#F2F2F2"/>
</svg>
