<?xml version="1.0" encoding="UTF-8"?>
<svg xmlns="http://www.w3.org/2000/svg" width="45" height="62" viewBox="0 0 45 62" fill="none">
  <path d="M1.24389 34.1526C1.66884 34.1526 2.05234 34.4117 2.21817 34.8056C2.38401 35.1994 2.29072 35.6555 1.99015 35.956C1.68957 36.2566 1.23353 36.3499 0.839667 36.1841C0.445809 36.0182 0.186691 35.6347 0.186691 35.2098C0.186691 34.6294 0.663467 34.1526 1.24389 34.1526Z" fill="#0A2669"></path>
  <path d="M10.3856 42.2369C10.541 41.9156 10.7483 41.6253 10.9971 41.3662C12.2408 40.1432 14.2412 40.1432 15.485 41.3662L22.2117 48.0929L22.3982 48.2795L22.5848 48.0929L29.3115 41.3662C30.5553 40.1432 32.5556 40.1432 33.7994 41.3662C34.0482 41.615 34.2658 41.9156 34.4109 42.2369L38.2666 38.4019V30.9704C38.2666 29.5608 38.8159 28.2134 39.8109 27.2184C40.8059 26.2234 42.1534 25.6741 43.563 25.6741C44.1434 25.6741 44.6202 26.1508 44.6202 26.7313V43.6568C44.6202 43.8641 44.558 44.0714 44.4543 44.2476L36.1626 56.6749V59.5355H37.2198C37.8002 59.5355 38.277 60.0123 38.277 60.5927C38.277 61.1732 37.8002 61.6499 37.2198 61.6499H7.59745C7.01703 61.6499 6.54025 61.1732 6.54025 60.5927C6.54025 60.0123 7.01703 59.5355 7.59745 59.5355H8.65465V56.6749L0.352526 44.2683C0.238515 44.0921 0.186691 43.8848 0.186691 43.6776V39.4488C0.186691 38.8683 0.663467 38.3916 1.24389 38.3916C1.82431 38.3916 2.30109 38.8683 2.30109 39.4488V43.3666L10.5928 55.7939C10.6965 55.9701 10.7587 56.1774 10.7587 56.3847V59.5563H21.341V51.0883C21.341 50.5286 21.1234 49.9897 20.7295 49.5854L13.9406 42.8795C13.7541 42.6722 13.4846 42.5582 13.2048 42.5582C12.9249 42.5582 12.6554 42.6722 12.4689 42.8795C12.2616 43.066 12.1476 43.3355 12.1476 43.6154C12.1476 43.8848 12.2408 44.1336 12.417 44.3305L17.3714 49.2849C17.5787 49.4714 17.6927 49.7409 17.6927 50.0208C17.6927 50.3006 17.5787 50.5701 17.3714 50.7566C17.0397 51.0676 16.5318 51.1194 16.1483 50.881C16.055 50.8396 15.9825 50.7877 15.9203 50.7152L4.78862 39.6457C4.57096 39.4384 4.43622 39.1482 4.42585 38.8372V30.9601C4.42585 30.1205 4.09418 29.3121 3.49303 28.7213C3.16136 28.3896 2.75714 28.1305 2.31145 27.9854V30.9704C2.31145 31.5509 1.83468 32.0276 1.25426 32.0276C0.673832 32.0276 0.186691 31.5612 0.186691 30.9808V26.752C0.186691 26.1612 0.663467 25.6844 1.24389 25.6844C2.65349 25.6844 4.0009 26.2338 4.98555 27.2288C5.98056 28.2238 6.54025 29.5712 6.52989 30.9808V38.4123L10.3856 42.2472V42.2369ZM23.4658 59.5459H34.0482V56.3743C34.0482 56.167 34.1104 55.9597 34.214 55.7835L42.5058 43.3562V27.9958C42.0601 28.1512 41.6558 28.4 41.3242 28.7317C40.723 29.3224 40.3914 30.1309 40.3914 30.9704V38.8476C40.3914 39.1689 40.2463 39.4799 39.9871 39.6768L28.8969 50.767C28.7 50.9639 28.4305 51.078 28.1506 51.078C27.8708 51.078 27.6013 50.9639 27.4044 50.767C27.1971 50.5701 27.0831 50.311 27.0831 50.0311C27.0831 49.7513 27.1971 49.4818 27.4044 49.2952L32.3173 44.3824C32.5246 44.1751 32.6386 43.9056 32.6386 43.6154C32.6386 43.3355 32.5246 43.066 32.3173 42.8795C32.1307 42.6722 31.8612 42.5582 31.5814 42.5582C31.3015 42.5582 31.032 42.6722 30.8455 42.8795L24.098 49.6062C23.7042 50 23.4762 50.5493 23.4865 51.109V59.5563L23.4658 59.5459Z" fill="#0A2669"></path>
  <path d="M7.59737 21.456H3.35821C2.77779 21.456 2.30101 20.9792 2.30101 20.3988C2.30101 19.8183 2.77779 19.3416 3.35821 19.3416H7.59737C8.17779 19.3416 8.65457 19.8183 8.65457 20.3988C8.65457 20.9792 8.17779 21.456 7.59737 21.456Z" fill="#0A2669"></path>
  <path d="M11.9301 10.9771C11.6503 10.9771 11.3808 10.863 11.1839 10.6557L8.17812 7.69145C7.75317 7.26649 7.75317 6.59279 8.17812 6.16784C8.60307 5.74288 9.27678 5.74288 9.70173 6.16784L12.666 9.1736C12.8733 9.36016 12.9873 9.62964 12.9873 9.90949C12.9873 10.1893 12.8733 10.4588 12.666 10.6454C12.4795 10.8527 12.21 10.9667 11.9301 10.9667" fill="#0A2669"></path>
  <path d="M22.4086 6.63421C21.8281 6.63421 21.3514 6.15743 21.3514 5.57701V1.34821C21.3514 0.767792 21.8281 0.291016 22.4086 0.291016C22.989 0.291016 23.4658 0.767792 23.4658 1.34821V5.57701C23.4658 6.15743 22.989 6.63421 22.4086 6.63421Z" fill="#0A2669"></path>
  <path d="M32.9908 10.977C32.7109 10.977 32.4415 10.863 32.2549 10.6557C32.0476 10.4587 31.9336 10.1996 31.9336 9.91978C31.9336 9.63994 32.0476 9.37046 32.2549 9.18389L35.1156 6.17813C35.5301 5.76354 36.2039 5.76354 36.6184 6.17813C37.033 6.59272 37.033 7.26642 36.6184 7.68101L33.6334 10.666C33.4468 10.8733 33.1774 10.9873 32.8871 10.9873H32.9908V10.977Z" fill="#0A2669"></path>
  <path d="M41.4487 21.456H37.2199C36.6395 21.456 36.1627 20.9792 36.1627 20.3988C36.1627 19.8183 36.6395 19.3416 37.2199 19.3416H41.4487C42.0291 19.3416 42.5059 19.8183 42.5059 20.3988C42.5059 20.9792 42.0291 21.456 41.4487 21.456Z" fill="#0A2669"></path>
  <path d="M12.8836 16.885V22.7203C12.8628 28.5557 16.4076 33.8106 21.8387 35.9664L22.4087 36.1841L22.958 35.9664C28.3892 33.8209 31.9546 28.5557 31.9339 22.7203V16.885L22.4087 13.0708L12.8836 16.885ZM22.4087 38.3814C22.2843 38.4021 22.1496 38.4021 22.0252 38.3814L21.0509 37.9772C14.801 35.5 10.7173 29.4367 10.7692 22.7203V16.1595C10.7692 15.7345 11.0283 15.3407 11.4221 15.1852L22.0045 10.9564C22.2636 10.8528 22.5538 10.8528 22.8129 10.9564L33.3953 15.1852C33.7995 15.3407 34.0586 15.7345 34.0483 16.1595V22.7203C34.069 29.4159 29.9853 35.4482 23.7665 37.915L22.7922 38.3192C22.6678 38.3399 22.5435 38.3399 22.4087 38.3192V38.3814Z" fill="#0A2669"></path>
  <path d="M20.2943 27.7991C20.0145 27.7991 19.745 27.6851 19.5584 27.4778L17.444 25.3634C17.0398 24.9489 17.0398 24.2959 17.444 23.8813C17.8483 23.4667 18.5116 23.4667 18.9262 23.8813L20.3047 25.2391L25.912 19.6525C26.3162 19.2379 26.9796 19.2379 27.3941 19.6525C27.7984 20.0567 27.7984 20.7201 27.3941 21.1346L21.0406 27.4882C20.854 27.6955 20.5845 27.8095 20.3047 27.8095" fill="#0A2669"></path>
</svg>
