<svg width="13" height="13" viewBox="0 0 13 13" fill="none" xmlns="http://www.w3.org/2000/svg">
<path d="M6.125 2.98047C5.23177 2.9987 4.49349 3.30859 3.91016 3.91016C3.30859 4.49349 2.9987 5.23177 2.98047 6.125C2.9987 7.01823 3.30859 7.75651 3.91016 8.33984C4.49349 8.94141 5.23177 9.2513 6.125 9.26953C7.01823 9.2513 7.75651 8.94141 8.33984 8.33984C8.94141 7.75651 9.2513 7.01823 9.26953 6.125C9.2513 5.23177 8.94141 4.49349 8.33984 3.91016C7.75651 3.30859 7.01823 2.9987 6.125 2.98047ZM6.125 8.17578C5.54167 8.15755 5.05859 7.95703 4.67578 7.57422C4.29297 7.19141 4.09245 6.70833 4.07422 6.125C4.09245 5.54167 4.29297 5.05859 4.67578 4.67578C5.05859 4.29297 5.54167 4.09245 6.125 4.07422C6.70833 4.09245 7.19141 4.29297 7.57422 4.67578C7.95703 5.05859 8.15755 5.54167 8.17578 6.125C8.15755 6.70833 7.95703 7.19141 7.57422 7.57422C7.19141 7.95703 6.70833 8.15755 6.125 8.17578ZM10.1445 2.84375C10.0898 3.29948 9.84375 3.54557 9.40625 3.58203C8.95052 3.54557 8.70443 3.29948 8.66797 2.84375C8.66797 2.64323 8.74089 2.47005 8.88672 2.32422C9.01432 2.19661 9.1875 2.13281 9.40625 2.13281C9.60677 2.13281 9.77995 2.19661 9.92578 2.32422C10.0534 2.47005 10.1263 2.64323 10.1445 2.84375ZM12.2227 3.60938C12.2227 2.60677 11.8854 1.75 11.2109 1.03906C10.5 0.364583 9.65234 0.0273438 8.66797 0.0273438C8.30339 0.00911458 7.78385 0 7.10938 0C6.45312 0 5.79688 0 5.14062 0C4.46615 0 3.95573 0.00911458 3.60938 0.0273438C2.625 0.0273438 1.76823 0.364583 1.03906 1.03906C0.364583 1.75 0.0364583 2.59766 0.0546875 3.58203C0.0182292 3.94661 0 4.46615 0 5.14062C0 5.79688 0 6.45312 0 7.10938C0 7.76562 0.0182292 8.27604 0.0546875 8.64062C0.0364583 9.64323 0.364583 10.5 1.03906 11.2109C1.75 11.8854 2.60677 12.2135 3.60938 12.1953C3.95573 12.2135 4.46615 12.2318 5.14062 12.25C5.79688 12.25 6.45312 12.25 7.10938 12.25C7.78385 12.2318 8.30339 12.2135 8.66797 12.1953C9.65234 12.2135 10.5 11.8854 11.2109 11.2109C11.8854 10.5 12.2227 9.64323 12.2227 8.64062C12.2409 8.27604 12.25 7.76562 12.25 7.10938C12.25 6.45312 12.25 5.79688 12.25 5.14062C12.25 4.46615 12.2409 3.94661 12.2227 3.58203V3.60938ZM10.9102 9.73438C10.6732 10.2812 10.2812 10.6732 9.73438 10.9102C9.36979 11.0378 8.8776 11.1107 8.25781 11.1289C7.63802 11.1471 7.07292 11.1562 6.5625 11.1562C6.39844 11.1562 6.2526 11.1562 6.125 11.1562C5.9974 11.1562 5.85156 11.1562 5.6875 11.1562C5.17708 11.1562 4.61198 11.1471 3.99219 11.1289C3.39062 11.1107 2.89844 11.0378 2.51562 10.9102C1.96875 10.6732 1.57682 10.2812 1.33984 9.73438C1.21224 9.35156 1.13932 8.85938 1.12109 8.25781C1.10286 7.63802 1.09375 7.07292 1.09375 6.5625C1.09375 6.39844 1.09375 6.2526 1.09375 6.125C1.09375 5.9974 1.09375 5.85156 1.09375 5.6875C1.09375 5.17708 1.10286 4.61198 1.12109 3.99219C1.13932 3.3724 1.21224 2.88021 1.33984 2.51562C1.57682 1.96875 1.96875 1.57682 2.51562 1.33984C2.89844 1.21224 3.39062 1.13932 3.99219 1.12109C4.61198 1.08464 5.17708 1.07552 5.6875 1.09375C5.85156 1.09375 5.9974 1.09375 6.125 1.09375C6.2526 1.09375 6.39844 1.09375 6.5625 1.09375C7.07292 1.09375 7.63802 1.10286 8.25781 1.12109C8.8776 1.13932 9.36979 1.21224 9.73438 1.33984C10.2812 1.57682 10.6732 1.96875 10.9102 2.51562C11.0378 2.88021 11.1107 3.3724 11.1289 3.99219C11.1654 4.61198 11.1745 5.17708 11.1562 5.6875C11.1562 5.85156 11.1562 5.9974 11.1562 6.125C11.1562 6.2526 11.1562 6.39844 11.1562 6.5625C11.1745 7.07292 11.1654 7.63802 11.1289 8.25781C11.1107 8.8776 11.0378 9.36979 10.9102 9.73438Z" fill="#2192D1"/>
</svg>
