<svg width="26" height="26" viewBox="0 0 26 26" fill="none" xmlns="http://www.w3.org/2000/svg">
<g clip-path="url(#clip0_1066_3664)">
<path d="M19.2501 19.1424C20.4743 19.1424 21.4709 18.1674 21.4818 16.9649C21.4818 16.3583 21.2326 15.7733 20.7884 15.3399L20.1926 14.7549C19.6293 14.2024 19.3151 13.4657 19.3151 12.6857V9.74992C19.3151 8.86158 19.1743 7.97326 18.8168 7.14992C17.7551 4.70159 15.3501 3.22824 12.8043 3.23907C9.21844 3.23907 6.3151 6.08823 6.3151 9.59823V12.6749C6.3151 13.4549 6.00094 14.1916 5.43761 14.7441L4.84177 15.3291C4.3976 15.7624 4.14844 16.3474 4.14844 16.9541C4.14844 18.1566 5.1451 19.1316 6.3801 19.1316H19.2609L19.2501 19.1424Z" stroke="white" stroke-width="1.5" stroke-linecap="round" stroke-linejoin="round"/>
<path d="M11.1152 22.75H14.5061" stroke="white" stroke-width="1.5" stroke-linecap="round" stroke-linejoin="round"/>
</g>
<defs>
<clipPath id="clip0_1066_3664">
<rect width="26" height="26" fill="white"/>
</clipPath>
</defs>
</svg>
