<?xml version="1.0" encoding="UTF-8"?>
<svg xmlns="http://www.w3.org/2000/svg" width="95" height="95" viewBox="0 0 95 95" fill="none">
  <path d="M0 60.4185C0.383902 59.6863 0.984365 59.4096 1.81369 59.4439C2.91618 59.4928 4.02359 59.439 5.12854 59.4635C6.00955 59.483 6.5854 60.0096 6.61739 60.7614C6.64938 61.5426 6.0563 62.1475 5.14577 62.1916C4.38781 62.2283 3.62492 62.1989 2.81528 62.1989V91.7108H15.959V62.2038C14.7532 62.2038 13.5645 62.2087 12.3759 62.2013C12.0412 62.2013 11.6943 62.2013 11.3719 62.123C10.6508 61.9442 10.2694 61.4422 10.3309 60.7124C10.3924 59.99 10.828 59.4953 11.5761 59.4831C13.5695 59.4512 15.5677 59.4463 17.5611 59.4879C18.3067 59.5026 18.7152 60.0096 18.7841 60.7393C18.8211 61.1287 18.7915 61.5254 18.7915 62.0593C21.0851 61.8511 23.3122 62.4487 25.5098 61.3565C28.4974 59.8749 31.603 58.6333 34.6447 57.257C36.1828 56.559 37.775 56.226 39.4583 56.2309C44.3382 56.2431 49.2207 56.2186 54.1007 56.2407C57.8856 56.2578 60.7796 58.7729 61.2546 62.4242C61.4342 63.798 61.1241 65.0935 60.4941 66.318C60.3588 66.58 60.2111 66.8371 60.002 67.2143H61.0109C64.7564 67.2143 68.5019 67.1996 72.2474 67.229C72.9119 67.2339 73.3819 67.06 73.852 66.5751C76.6672 63.6756 79.4678 60.7589 82.3692 57.9427C86.1984 54.2252 92.5672 55.9444 94.0265 61.0504C94.7057 63.4234 94.2849 65.6568 92.6312 67.4788C89.2548 71.1938 85.8268 74.8671 82.3126 78.4499C79.8714 80.9404 76.8469 82.5714 73.4754 83.5069C71.706 83.9991 69.912 84.4106 68.123 84.8391C67.1361 85.0767 66.4594 84.7118 66.2551 83.884C66.0558 83.0759 66.4938 82.4539 67.4954 82.1918C69.0655 81.7829 70.6454 81.4008 72.2179 80.9992C75.6312 80.1274 78.5769 78.4352 80.9985 75.8932C84.146 72.5921 87.2738 69.2689 90.3622 65.9115C92.5918 63.487 91.5361 59.7181 88.4107 58.8733C86.7348 58.4202 85.2681 58.8757 84.0426 60.1247C81.1043 63.1197 78.1413 66.0902 75.2202 69.1024C74.6173 69.722 73.9873 69.984 73.1186 69.9815C63.6023 69.9571 54.0859 69.9669 44.5696 69.9669C44.417 69.9669 44.262 69.9693 44.1094 69.9669C43.1004 69.9375 42.5196 69.4256 42.5295 68.5783C42.5418 67.7408 43.1299 67.2388 44.1488 67.2216C44.9166 67.2094 45.6844 67.2192 46.4522 67.2192C48.8466 67.2192 51.2411 67.2339 53.6356 67.2069C54.209 67.1996 54.7996 67.1212 55.3508 66.9645C57.5903 66.3204 58.7912 64.6625 58.5131 62.6764C58.2104 60.514 56.4656 59.0129 54.1573 58.9957C50.7809 58.9712 47.4045 58.9884 44.0257 58.9884C42.5221 58.9884 41.0086 58.888 39.5149 59.0202C38.2549 59.1304 36.9432 59.3337 35.7841 59.8088C32.4693 61.1655 29.2061 62.6544 25.9503 64.1458C24.9487 64.6062 23.9594 64.8584 22.852 64.8119C21.5404 64.7556 20.2238 64.7996 18.853 64.7996V89.9598C19.2 89.9598 19.5249 89.9598 19.8522 89.9598C23.7503 89.9598 27.6557 89.8374 31.5464 89.9941C35.5528 90.1533 39.3229 89.1419 43.1299 88.1966C48.8983 86.764 54.6692 85.3411 60.44 83.9159C60.5581 83.8865 60.6812 83.8718 60.8017 83.8449C61.7418 83.6489 62.4309 83.9893 62.6277 84.7534C62.8394 85.5787 62.4259 86.2374 61.4465 86.4921C59.431 87.0162 57.4057 87.5084 55.3828 88.0056C49.671 89.4088 43.9666 90.8561 38.2352 92.1736C36.6085 92.5483 34.8957 92.6585 33.2174 92.6854C28.7681 92.754 24.3138 92.7075 19.8645 92.7075C19.5323 92.7075 19.2 92.7075 18.8678 92.7075L19.0598 92.9475C18.6611 93.4715 18.2624 93.9932 17.8638 94.5172H0V60.421V60.4185Z" fill="#00C4D1"></path>
  <path d="M73.0616 15.4859C72.8721 15.9071 72.7589 16.2549 72.5743 16.5585C71.8164 17.8148 71.0313 19.054 70.2684 20.3054C69.7713 21.1184 69.9436 21.5274 70.8541 21.7478C72.2839 22.0931 73.7088 22.458 75.146 22.7641C76.1156 22.9698 76.561 23.5184 76.5536 24.4906C76.5413 26.0775 76.5462 27.6668 76.5512 29.2537C76.5536 30.1892 76.1033 30.7157 75.1829 30.919C73.7482 31.2373 72.3208 31.5924 70.8935 31.9426C69.9288 32.1777 69.7738 32.572 70.3004 33.4316C71.0658 34.683 71.8262 35.9368 72.6161 37.1735C73.128 37.9719 73.0296 38.6478 72.3578 39.3016C71.2159 40.411 70.0888 41.535 68.9715 42.6689C68.3071 43.3448 67.6156 43.3987 66.8256 42.904C65.5533 42.1081 64.2712 41.3293 62.9866 40.5555C62.2336 40.1024 61.8029 40.2714 61.5913 41.1212C61.2443 42.5122 60.9293 43.9105 60.5971 45.3039C60.3091 46.5186 59.9228 46.832 58.6948 46.8345C57.2207 46.8394 55.7491 46.8394 54.275 46.8345C52.9928 46.8296 52.6262 46.5308 52.3235 45.2525C52.006 43.9178 51.6959 42.5807 51.3736 41.2461C51.1225 40.2004 50.7559 40.0559 49.8232 40.624C48.5927 41.371 47.3697 42.1301 46.1367 42.8721C45.2041 43.4329 44.6946 43.3717 43.9318 42.6199C42.8194 41.5252 41.7096 40.4257 40.6095 39.3188C39.8368 38.5425 39.7802 38.0674 40.3511 37.1294C41.114 35.8756 41.8966 34.6364 42.6595 33.385C43.1492 32.5818 42.9868 32.1655 42.0787 31.9402C40.6218 31.5802 39.1625 31.23 37.6983 30.8994C36.8197 30.701 36.3841 30.1868 36.3866 29.2905C36.3915 27.6423 36.3817 25.9918 36.3915 24.3437C36.3965 23.4988 36.8025 22.9918 37.6589 22.8033C39.1231 22.48 40.58 22.1127 42.0369 21.7551C43.0015 21.5176 43.1615 21.1184 42.6349 20.2564C41.8695 19.005 41.1116 17.7487 40.3191 16.5169C39.8048 15.7161 39.9057 15.0451 40.5775 14.3913C41.7194 13.2819 42.849 12.1603 43.9613 11.0216C44.6233 10.3432 45.3074 10.2746 46.1023 10.7742C47.3721 11.5726 48.6543 12.3513 49.9388 13.1276C50.6919 13.5831 51.1373 13.4117 51.344 12.5693C51.6935 11.1489 52.0109 9.71873 52.353 8.29591C52.6212 7.1841 53.0051 6.88044 54.1445 6.87799C55.7097 6.87309 57.2748 6.87064 58.84 6.87799C59.9154 6.88289 60.3116 7.1988 60.57 8.25673C60.9022 9.61832 61.2172 10.9873 61.5396 12.3513C61.8127 13.5023 62.1597 13.6419 63.1982 13.0101C64.4016 12.2778 65.5952 11.5309 66.801 10.8036C67.746 10.233 68.2111 10.2869 69.0035 11.0632C70.1183 12.1554 71.2331 13.2501 72.3184 14.3741C72.6211 14.6876 72.8155 15.1039 73.0665 15.4835L73.0616 15.4859ZM43.1787 37.8053C43.9564 38.6257 44.6454 39.3555 45.3739 40.122C46.277 39.5686 47.2195 39.1008 48.0292 38.4665C49.4516 37.3523 50.8395 37.0903 52.476 38.038C53.1651 38.4372 53.6499 38.8118 53.8197 39.6175C54.1347 41.104 54.5285 42.5734 54.8902 44.0525H58.0402C58.2863 43.0289 58.6259 42.0371 58.7514 41.0159C58.9679 39.2331 59.7431 38.06 61.5814 37.5702C62.3541 37.3645 62.9645 37.2764 63.6535 37.7196C64.9356 38.5425 66.2498 39.3188 67.4778 40.0681C68.2849 39.3016 69.0306 38.5963 69.791 37.8739C69.2324 36.9654 68.7648 36.0225 68.1274 35.2119C67.0323 33.821 66.7641 32.479 67.6919 30.8602C68.1078 30.1353 68.5064 29.6333 69.3333 29.457C70.6203 29.1852 71.9025 28.879 73.1748 28.5411C73.4061 28.4799 73.7433 28.208 73.7531 28.0195C73.7974 27.1403 73.982 26.1436 73.6325 25.4138C73.4258 24.9804 72.3307 24.9608 71.6318 24.7624C71.3069 24.6718 70.9821 24.5469 70.6499 24.5273C68.8116 24.4073 67.6993 23.5061 67.2169 21.7013C67.0225 20.969 66.9511 20.3715 67.3744 19.7152C68.2037 18.432 68.9863 17.1218 69.8378 15.7382C69.2398 15.1602 68.6147 14.619 68.0659 14.0092C67.6894 13.5929 67.4015 13.637 66.9733 13.9137C65.8413 14.6459 64.6748 15.3218 63.5354 16.0394C62.9398 16.4141 62.3714 16.4459 61.7143 16.1594C59.3494 15.1284 59.342 15.1455 58.7588 12.6403C58.7046 12.4027 58.6406 12.1676 58.584 11.9301C58.0377 9.59384 58.0377 9.61832 55.6285 9.61343C55.0083 9.61343 54.7696 9.81669 54.6736 10.4093C54.5531 11.1587 54.3217 11.8934 54.1495 12.6354C53.5613 15.1627 53.5564 15.148 51.2013 16.1594C50.5442 16.441 49.9831 16.4239 49.3827 16.0394C48.2211 15.2998 47.0473 14.5749 45.8513 13.8917C45.6347 13.7692 45.1868 13.7668 45.0072 13.9088C44.3157 14.4574 43.6881 15.0868 43.0385 15.6843C43.5233 16.4679 43.9244 17.1169 44.3255 17.7683C44.7414 18.4442 45.236 19.0883 45.5486 19.8083C45.7602 20.2956 45.9374 20.9935 45.743 21.427C44.547 24.0767 45.4772 23.8122 42.2682 24.5322C41.9704 24.5983 41.6726 24.6743 41.3749 24.7477C38.9509 25.3428 38.9361 25.3428 39.1625 27.8505C39.1847 28.1027 39.5095 28.4505 39.7679 28.5337C40.58 28.7982 41.4192 29.0505 42.2633 29.1362C44.0917 29.3174 45.2139 30.1843 45.6938 31.9916C45.8882 32.7238 45.9669 33.3189 45.5387 33.9777C44.7119 35.2585 43.9318 36.5711 43.1689 37.8102L43.1787 37.8053Z" fill="#00C4D1"></path>
  <path d="M82.7586 26.8709C82.7193 39.6567 73.5179 50.4981 60.8541 52.6776C46.6669 55.1216 33.0236 45.5047 30.5479 31.3182C27.9984 16.7055 38.1399 2.88625 52.9496 0.900178C59.6384 0.00142598 65.8079 1.50751 71.3917 5.30578C71.7362 5.53842 72.1743 5.85188 72.253 6.19718C72.3539 6.64043 72.2948 7.32123 72.0094 7.59551C71.6895 7.90407 71.0373 7.96775 70.5353 7.95305C70.2203 7.94571 69.9053 7.61021 69.6026 7.4045C55.6566 -2.02627 36.272 6.08698 33.314 22.5951C30.9245 35.9344 40.0471 48.3357 53.555 50.1087C66.2533 51.7764 78.1666 42.615 79.7883 29.9125C80.6127 23.4498 78.9861 17.6287 75.0289 12.4493C74.9354 12.3268 74.8394 12.2093 74.7508 12.0844C74.207 11.335 74.2537 10.5318 74.8665 10.0444C75.4817 9.55464 76.375 9.62321 76.8771 10.3775C78.0928 12.2044 79.37 14.0141 80.347 15.9684C82.0499 19.3772 82.7833 23.0531 82.7611 26.8685L82.7586 26.8709Z" fill="#00C4D1"></path>
  <path d="M56.4825 33.5147C52.7567 33.5245 49.7372 30.5368 49.7396 26.8414C49.7421 23.1607 52.801 20.1265 56.4874 20.1485C60.1567 20.1705 63.1639 23.1582 63.1811 26.8022C63.2008 30.5099 60.2108 33.5049 56.4825 33.5147ZM56.4382 30.7645C58.6457 30.7743 60.42 29.0283 60.42 26.8463C60.42 24.6765 58.6112 22.8815 56.4407 22.8986C54.2997 22.9158 52.5278 24.6716 52.5032 26.7998C52.4786 28.9842 54.2357 30.7547 56.4382 30.7645Z" fill="#00C4D1"></path>
</svg>
