<svg width="14" height="12" viewBox="0 0 14 12" fill="none" xmlns="http://www.w3.org/2000/svg">
<path d="M12.5508 2.84375C12.569 2.97135 12.5781 3.08984 12.5781 3.19922C12.5781 4.49349 12.2591 5.76042 11.6211 7C11.0013 8.23958 10.0807 9.26953 8.85938 10.0898C7.65625 10.9102 6.17057 11.3385 4.40234 11.375C2.76172 11.3568 1.29427 10.9284 0 10.0898C0.21875 10.1081 0.446615 10.1172 0.683594 10.1172C2.05078 10.099 3.24479 9.6888 4.26562 8.88672C3.60938 8.86849 3.04427 8.67708 2.57031 8.3125C2.09635 7.94792 1.76823 7.48307 1.58594 6.91797C1.75 6.9362 1.92318 6.94531 2.10547 6.94531C2.37891 6.94531 2.63411 6.91797 2.87109 6.86328C2.19661 6.71745 1.64974 6.38932 1.23047 5.87891C0.811198 5.36849 0.592448 4.75781 0.574219 4.04688V3.99219C0.957031 4.21094 1.38542 4.33854 1.85938 4.375C1.05729 3.8099 0.628906 3.00781 0.574219 1.96875C0.592448 1.4401 0.729167 0.957031 0.984375 0.519531C1.69531 1.39453 2.5612 2.09635 3.58203 2.625C4.58464 3.15365 5.6875 3.45443 6.89062 3.52734C6.85417 3.30859 6.83594 3.08984 6.83594 2.87109C6.85417 2.06901 7.1276 1.39453 7.65625 0.847656C8.20312 0.300781 8.8776 0.0182292 9.67969 0C10.5365 0.0182292 11.2383 0.31901 11.7852 0.902344C12.4414 0.77474 13.0521 0.546875 13.6172 0.21875C13.3802 0.893229 12.9609 1.42188 12.3594 1.80469C12.9245 1.73177 13.4714 1.57682 14 1.33984C13.599 1.92318 13.1159 2.42448 12.5508 2.84375Z" fill="#2192D1"/>
</svg>
