<svg width="48" height="49" viewBox="0 0 48 49" fill="none" xmlns="http://www.w3.org/2000/svg">
<path d="M0.826233 47.5477L4.07737 35.5539C2.07161 32.0447 1.01783 28.0615 1.01783 23.9836C1.02182 11.2193 11.3001 0.836914 23.9295 0.836914C30.0586 0.838931 35.8104 3.25101 40.1373 7.62542C44.4642 11.9998 46.8451 17.8162 46.8412 23.9997C46.8352 36.7619 36.5569 47.1443 23.9295 47.1443H23.9195C20.0856 47.1423 16.3176 46.1702 12.9706 44.3269L0.826233 47.5477Z" fill="url(#paint0_linear_1_211)"/>
<path d="M0 48.3847L3.3669 35.9613C1.28928 32.325 0.197583 28.2007 0.199579 23.9756C0.203571 10.7555 10.8511 0 23.9335 0C30.2821 0.00201679 36.2415 2.4988 40.7221 7.03052C45.2026 11.5622 47.6694 17.5864 47.6674 23.9937C47.6614 37.2117 37.0139 47.9693 23.9335 47.9693H23.9235C19.9519 47.9672 16.0481 46.9609 12.5815 45.051L0 48.3847ZM13.1642 40.7108L13.8847 41.1424C16.9123 42.9575 20.385 43.9196 23.9255 43.9216H23.9335C34.8066 43.9216 43.6559 34.9812 43.6599 23.9937C43.6619 18.6694 41.6122 13.6617 37.8881 9.89637C34.1639 6.12901 29.2104 4.05374 23.9415 4.05172C13.0604 4.05172 4.21111 12.9901 4.20712 23.9776C4.20513 27.7429 5.24893 31.4094 7.22276 34.5818L7.69177 35.3361L5.69798 42.6893L13.1642 40.7108Z" fill="url(#paint1_linear_1_211)"/>
<path fill-rule="evenodd" clip-rule="evenodd" d="M18.002 13.9521C17.557 12.9537 17.0899 12.9336 16.6668 12.9174C16.3216 12.9033 15.9264 12.9033 15.5312 12.9033C15.1361 12.9033 14.4934 13.0526 13.9506 13.6536C13.4077 14.2526 11.8749 15.7026 11.8749 18.6512C11.8749 21.5997 14.0005 24.4494 14.2958 24.8487C14.5932 25.2481 18.3992 31.492 24.4265 33.894C29.4359 35.8906 30.4557 35.4933 31.5434 35.3925C32.6312 35.2917 35.052 33.9424 35.547 32.5448C36.042 31.1452 36.042 29.9472 35.8923 29.6951C35.7446 29.445 35.3494 29.2958 34.7547 28.9953C34.1619 28.6948 31.2461 27.2447 30.7032 27.045C30.1604 26.8454 29.7632 26.7445 29.368 27.3455C28.9729 27.9445 27.8373 29.2937 27.49 29.6931C27.1447 30.0944 26.7975 30.1428 26.2047 29.8443C25.612 29.5438 23.702 28.9126 21.4368 26.8696C19.6745 25.2803 18.483 23.32 18.1377 22.719C17.7925 22.12 18.0998 21.7953 18.3972 21.4968C18.6626 21.2286 18.9899 20.797 19.2873 20.4481C19.5827 20.0972 19.6825 19.8491 19.8801 19.4498C20.0776 19.0505 19.9798 18.6996 19.8302 18.3991C19.6805 18.1006 18.5289 15.1359 18.002 13.9521Z" fill="white"/>
<defs>
<linearGradient id="paint0_linear_1_211" x1="23.833" y1="47.5469" x2="23.833" y2="0.8379" gradientUnits="userSpaceOnUse">
<stop stop-color="#20B038"/>
<stop offset="1" stop-color="#60D66A"/>
</linearGradient>
<linearGradient id="paint1_linear_1_211" x1="23.8332" y1="48.3841" x2="23.8332" y2="0.000138428" gradientUnits="userSpaceOnUse">
<stop stop-color="white"/>
<stop offset="1" stop-color="white"/>
</linearGradient>
</defs>
</svg>
